<?xml version="1.0" encoding="UTF-8" standalone="no"?>
<svg width="194px" height="198px" viewBox="0 0 194 198" version="1.1" xmlns="http://www.w3.org/2000/svg" xmlns:xlink="http://www.w3.org/1999/xlink" xmlns:sketch="http://www.bohemiancoding.com/sketch/ns">
    <!-- Generator: Sketch 3.3.2 (12043) - http://www.bohemiancoding.com/sketch -->
    <title>Imported Layers</title>
    <desc>Created with Sketch.</desc>
    <defs></defs>
    <g id="Landing" stroke="none" stroke-width="1" fill="none" fill-rule="evenodd" sketch:type="MSPage">
        <g id="Desktop-HD" sketch:type="MSArtboardGroup" transform="translate(-328.000000, -1566.000000)">
            <g id="How-it-works" sketch:type="MSLayerGroup" transform="translate(223.000000, 1180.000000)">
                <g id="4col" transform="translate(0.000000, 274.000000)" sketch:type="MSShapeGroup">
                    <g id="Imported-Layers" transform="translate(107.000000, 114.000000)">
                        <path d="M96.301,84.9252 C95.527,85.6131556 93.826,85.1552 92.186,83.9142222 C92.348,83.4777333 92.256,82.9257333 91.93,82.4626667 L96.573,77.7164889 C97.37,78.6395556 97.855,79.8508889 97.855,81.1756889 C97.855,82.6446222 97.258,83.9735111 96.301,84.9252 L96.301,84.9252 Z M92.737,86.4074222 C91.44,86.4074222 90.256,85.9116444 89.353,85.0969333 L90.158,84.2740444 C90.458,84.4958667 90.801,84.6205778 91.135,84.6205778 C91.376,84.6205778 91.601,84.5531111 91.786,84.4284 C92.894,85.2748 94.025,85.7767111 94.982,85.8748444 C94.303,86.2152444 93.542,86.4074222 92.737,86.4074222 L92.737,86.4074222 Z M87.619,81.1756889 C87.619,80.3528 87.806,79.5748889 88.138,78.8818222 C88.235,79.8600889 88.728,81.0162222 89.556,82.1478222 C89.263,82.6037333 89.323,83.2692 89.705,83.812 L88.902,84.6328444 C88.104,83.7108 87.619,82.5004889 87.619,81.1756889 L87.619,81.1756889 Z M91.496,83.8304 C91.387,83.9428444 91.239,83.9663556 91.135,83.9663556 C90.878,83.9663556 90.589,83.8293778 90.365,83.5993778 C89.997,83.2232 89.894,82.6936889 90.139,82.4432444 C90.248,82.3308 90.396,82.3072889 90.5,82.3072889 C90.757,82.3072889 91.045,82.4442667 91.27,82.6752889 C91.638,83.0504444 91.741,83.5799556 91.496,83.8304 L91.496,83.8304 Z M89.066,77.5345333 C89.997,76.5542222 91.298,75.9439556 92.737,75.9439556 C94.033,75.9439556 95.217,76.4397333 96.12,77.2544444 L91.477,82.0006222 C91.177,81.7788 90.834,81.6540889 90.5,81.6540889 C90.343,81.6540889 90.193,81.6827111 90.056,81.7379111 C88.844,80.0624889 88.396,78.3257333 89.066,77.5345333 L89.066,77.5345333 Z M98.494,81.1756889 C98.494,77.9301333 95.911,75.2897333 92.737,75.2897333 C91.149,75.2897333 89.71,75.9500889 88.667,77.0152444 L88.666,77.0142222 C88.637,77.0428444 88.61,77.0745333 88.584,77.1062222 C87.591,78.1632 86.979,79.5973778 86.979,81.1756889 C86.979,84.4202222 89.562,87.0616444 92.737,87.0616444 C94.295,87.0616444 95.71,86.4237778 96.749,85.3913333 C96.768,85.3729333 96.789,85.3565778 96.808,85.3371556 L96.806,85.3351111 C97.849,84.2699556 98.494,82.7979556 98.494,81.1756889 L98.494,81.1756889 Z" id="Fill-1" fill="#333333"></path>
                        <path d="M148.157,81.0223556 C148.046,81.0223556 147.934,80.9845333 147.843,80.9068444 C147.631,80.7310222 147.6,80.4110667 147.774,80.1953778 C149.566,77.9567111 150.554,75.1292444 150.554,72.2322667 C150.554,65.2842222 145.025,59.6323556 138.228,59.6323556 C131.431,59.6323556 125.902,65.2842222 125.902,72.2322667 C125.902,75.1231111 126.888,77.9505778 128.676,80.1953778 C128.85,80.4131111 128.817,80.7310222 128.606,80.9068444 C128.392,81.0847111 128.081,81.0530222 127.91,80.8363111 C125.977,78.4095556 124.912,75.3541333 124.912,72.2322667 C124.912,64.7271111 130.885,58.6203556 138.228,58.6203556 C145.57,58.6203556 151.543,64.7271111 151.543,72.2322667 C151.543,75.3623111 150.476,78.4177333 148.539,80.8363111 C148.441,80.9589778 148.3,81.0223556 148.157,81.0223556" id="Fill-2" fill="#333333"></path>
                        <path d="M138.228,56.2406222 C137.955,56.2406222 137.733,56.0136889 137.733,55.7346222 L137.733,47.3759111 C137.733,47.0968444 137.955,46.8699111 138.228,46.8699111 C138.5,46.8699111 138.723,47.0968444 138.723,47.3759111 L138.723,55.7346222 C138.723,56.0136889 138.5,56.2406222 138.228,56.2406222" id="Fill-3" fill="#333333"></path>
                        <path d="M162.041,72.7382667 L154.521,72.7382667 C154.248,72.7382667 154.026,72.5103111 154.026,72.2322667 C154.026,71.9532 154.248,71.7262667 154.521,71.7262667 L162.041,71.7262667 C162.313,71.7262667 162.536,71.9532 162.536,72.2322667 C162.536,72.5103111 162.313,72.7382667 162.041,72.7382667" id="Fill-4" fill="#333333"></path>
                        <path d="M121.935,72.7382667 L114.419,72.7382667 C114.146,72.7382667 113.924,72.5103111 113.924,72.2322667 C113.924,71.9532 114.146,71.7262667 114.419,71.7262667 L121.935,71.7262667 C122.207,71.7262667 122.43,71.9532 122.43,72.2322667 C122.43,72.5103111 122.207,72.7382667 121.935,72.7382667" id="Fill-5" fill="#333333"></path>
                        <path d="M126.706,60.9643111 C126.578,60.9643111 126.453,60.9142222 126.356,60.8160889 L121.042,55.3809333 C120.848,55.1836444 120.848,54.8636889 121.042,54.6664 C121.235,54.4680889 121.548,54.4680889 121.742,54.6664 L127.056,60.1005333 C127.249,60.2978222 127.249,60.6177778 127.056,60.8160889 C126.959,60.9142222 126.832,60.9643111 126.706,60.9643111" id="Fill-6" fill="#333333"></path>
                        <path d="M149.749,60.9643111 C149.622,60.9643111 149.496,60.9142222 149.4,60.8160889 C149.206,60.6177778 149.206,60.2978222 149.4,60.1005333 L154.714,54.6664 C154.907,54.4680889 155.22,54.4680889 155.414,54.6664 C155.607,54.8636889 155.607,55.1836444 155.414,55.3809333 L150.099,60.8160889 C150.003,60.9142222 149.877,60.9643111 149.749,60.9643111" id="Fill-7" fill="#333333"></path>
                        <path d="M76.992,60.8774222 C78.539,60.9336444 79.837,59.6988 79.897,58.1174222 C79.951,56.5360444 78.738,55.2040889 77.201,55.1529778 C75.649,55.0926667 74.351,56.3326222 74.297,57.9088889 C74.237,59.4902667 75.445,60.8171111 76.992,60.8774222" id="Fill-8" fill="#333333"></path>
                        <path d="M109.232,94.7855556 C105.085,95.2363556 91.266,95.8537778 77.577,96.0377778 C77.471,95.8282222 77.311,95.6452444 77.091,95.5236 C76.957,95.4469333 76.788,95.3856 76.549,95.2997333 C75.534,94.9327556 74.983,94.6128 74.903,94.3429333 C74.694,93.6171556 75.221,89.8482222 76.201,87.6729333 C77.165,85.5272889 77.952,83.8896889 77.957,83.8692444 L78.012,83.7568 L78.036,83.6361778 L78.589,80.8894667 L78.598,80.8393778 L78.603,80.7882667 C78.633,80.4836444 79.32,73.3710222 79.364,72.2476 C79.375,71.9920444 79.469,71.8203111 79.558,71.714 C79.628,71.7170667 79.698,71.7170667 79.772,71.7170667 C81.637,71.7170667 84.014,70.0958222 84.721,69.5826667 C86.133,69.2361333 86.915,67.9961778 86.835,66.9739556 C86.77,66.1255111 86.138,65.5305778 85.303,65.5305778 C84.687,65.5305778 84.014,65.8352 83.239,66.4659111 C82.443,67.1109333 81.657,67.4421333 80.901,67.4421333 C80.553,67.4421333 80.28,67.3716 80.09,67.3051556 C79.986,66.8226667 79.807,65.8004444 79.648,63.9952 C79.494,62.1746222 78.325,61.0859556 76.52,61.0859556 C75.644,61.0859556 74.908,61.3364 74.829,61.3660444 L74.579,61.4529333 L74.41,61.6563556 C74.391,61.6768 72.476,63.9849778 70.506,66.1858222 C68.243,68.7188889 69.118,70.7060889 69.327,71.0924889 L71.934,76.0707111 L71.806,76.1616889 C71.881,76.3978222 71.94,76.6390667 71.983,76.8844 L72.186,76.7412889 L72.173,79.9040444 C72.322,84.2822222 71.49,85.7000444 71.481,85.7092444 L71.456,85.7460444 L71.451,85.7562667 C70.023,88.2423111 69.736,91.4602667 69.506,94.0434222 C69.457,94.6128 69.407,95.1464 69.352,95.6196889 C69.33,95.8108444 69.314,95.9784889 69.298,96.1451111 C53.515,96.3485333 29.503,96.6633778 28.174,96.7277778 C23.185,96.9669778 18.475,98.2682667 28.526,99.4581333 C38.579,100.642889 80.773,100.892311 87.934,100.322933 C95.101,99.7484444 108.322,98.0341778 110.868,96.5090222 C113.42,94.9838667 113.44,94.3327111 109.232,94.7855556" id="Fill-9" fill="#333333"></path>
                        <path d="M32.193,169.941378 C12.461,152.146533 0,126.123822 0,97.1111111 C0,43.4781778 42.533,0 95,0 C147.467,0 190,43.4781778 190,97.1111111 C190,150.744044 147.467,194.222222 95,194.222222 C73.944,194.222222 54.496,187.207733 38.747,175.356089 C36.481,173.651022 34.299,171.840667 32.193,169.941378 L32.193,169.941378 Z" id="Stroke-10" stroke="#333333" stroke-width="3"></path>
                        <path d="M86.995,66.2553333 L85.591,64.8211556 C85.422,64.6484 85.422,64.3652444 85.591,64.1924889 C85.76,64.0187111 86.037,64.0187111 86.206,64.1924889 L87.61,65.6266667 C87.779,65.7994222 87.779,66.0825778 87.61,66.2553333 C87.441,66.4280889 87.164,66.4280889 86.995,66.2553333" id="Fill-11" fill="#333333"></path>
                        <path d="M66.686,86.2868 L87.146,65.3721333 L86.425,64.6361333 L65.966,85.5508 L66.686,86.2868" id="Fill-12" fill="#333333"></path>
                        <path d="M58.401,94.0209333 C59.597,95.2506667 61.439,95.2414667 62.835,93.8226222 C65.919,90.6619111 64.388,88.7370667 66.9,86.0435111 C66.978,85.9596889 66.968,85.8176 66.876,85.7245778 L66.697,85.5416 L66.514,85.3545333 C66.422,85.2604889 66.284,85.2492444 66.202,85.3289778 C63.569,87.8947556 61.686,86.3348444 58.594,89.4873778 C57.206,90.9144 57.201,92.8014222 58.401,94.0209333 L58.401,94.0209333 Z M61.306,91.0350222 C62.128,91.8763111 62.147,93.3115111 61.494,93.978 C60.812,94.6761778 59.407,94.1538222 58.831,93.5650222 C58.255,92.9762222 57.744,91.54 58.426,90.8428444 C59.079,90.1753333 60.483,90.1947556 61.306,91.0350222 L61.306,91.0350222 Z" id="Fill-13" fill="#333333"></path>
                        <path d="M53.362,120.817467 C55.483,120.894133 57.262,119.201333 57.344,117.0332 C57.419,114.865067 55.756,113.039378 53.649,112.969867 C51.521,112.886044 49.742,114.586 49.667,116.746978 C49.585,118.915111 51.241,120.733644 53.362,120.817467" id="Fill-14" fill="#333333"></path>
                        <path d="M35.517,175.264089 C50.523,175.366311 64.059,175.239556 68.363,174.897111 C78.19,174.11 96.315,171.759911 99.807,169.668444 C103.305,167.576978 103.333,166.684578 97.564,167.306089 C91.878,167.924533 72.931,168.769911 54.164,169.023422 C54.019,168.735156 53.8,168.484711 53.498,168.318089 C53.313,168.2128 53.083,168.128978 52.755,168.0104 C51.363,167.507467 50.607,167.068933 50.497,166.698889 C50.211,165.703244 50.934,160.536933 52.278,157.554089 C53.6,154.613156 54.678,152.368356 54.685,152.339733 L54.761,152.185378 L54.794,152.019778 L55.551,148.254933 L55.563,148.185422 L55.57,148.114889 C55.612,147.697822 56.553,137.945822 56.614,136.405333 C56.628,136.055733 56.758,135.820622 56.88,135.673422 C56.976,135.679556 57.072,135.679556 57.173,135.679556 C59.731,135.679556 62.99,133.4552 63.959,132.752933 C65.895,132.2776 66.966,130.577644 66.857,129.176178 C66.767,128.012889 65.902,127.197156 64.756,127.197156 C63.911,127.197156 62.99,127.615244 61.927,128.479022 C60.836,129.364267 59.759,129.817111 58.721,129.817111 C58.245,129.817111 57.87,129.721022 57.61,129.630044 C57.466,128.967644 57.222,127.5672 57.004,125.091378 C56.793,122.595111 55.19,121.103689 52.714,121.103689 C51.514,121.103689 50.504,121.446133 50.396,121.487022 L50.054,121.606622 L49.822,121.884667 C49.796,121.913289 47.17,125.077067 44.47,128.094667 C41.367,131.567156 42.567,134.2924 42.853,134.822933 L46.428,141.647289 L46.252,141.772 C46.354,142.095022 46.435,142.426222 46.495,142.762533 L46.773,142.566267 L46.755,146.903556 C46.959,152.905022 45.819,154.850311 45.807,154.862578 L45.772,154.912667 L45.765,154.926978 C43.808,158.335067 43.413,162.746978 43.099,166.288978 C43.031,167.068933 42.963,167.799822 42.888,168.449956 C42.857,168.711644 42.835,168.940622 42.813,169.1696 C38.743,169.221733 34.274,169.28 29.687,169.340311" id="Fill-15" fill="#333333"></path>
                        <path id="Fill-16" fill="#333333"></path>
                        <path d="M47.489,137.012533 L46.474,133.472578 C46.406,133.238489 46.164,133.102533 45.934,133.171022 L45.459,133.313111 C45.229,133.382622 45.097,133.631022 45.164,133.865111 L46.179,137.405067 C46.246,137.639156 46.489,137.775111 46.719,137.706622 L47.194,137.564533 C47.423,137.495022 47.556,137.246622 47.489,137.012533" id="Fill-17" fill="#333333"></path>
                        <path d="M89.079,123.009111 L45.424,136.092533 L44.982,134.553067 L88.638,121.469644 L89.079,123.009111" id="Fill-18" fill="#333333"></path>
                        <path d="M99.946,113.917467 C93.375,115.896489 94.06,119.720622 88.624,121.494178 C88.454,121.5504 88.365,121.753822 88.422,121.953156 L88.648,122.740267 C88.705,122.9396 88.888,123.062267 89.06,123.015244 C94.576,121.507467 96.017,125.108756 102.593,123.148133 C105.554,122.250622 106.953,119.665422 106.197,117.058756 C105.458,114.452089 102.912,113.039378 99.946,113.917467 L99.946,113.917467 Z M101.898,114.702533 C103.35,114.267067 104.9,116.0672 105.259,117.320444 C105.618,118.572667 105.265,120.9432 103.812,121.378667 C102.422,121.794711 100.504,120.687644 99.991,118.898756 C99.478,117.109867 100.508,115.118578 101.898,114.702533 L101.898,114.702533 Z" id="Fill-19" fill="#333333"></path>
                        <path d="M84.664,110.499156 C84.545,110.423511 84.391,110.461333 84.318,110.580933 C83.939,111.204489 83.102,111.606222 82.188,111.606222 C81.274,111.606222 80.439,111.204489 80.058,110.580933 C80.056,110.578889 80.054,110.577867 80.052,110.575822 C80.044,110.561511 80.03,110.550267 80.017,110.538 C80.005,110.525733 79.996,110.513467 79.983,110.504267 C79.981,110.502222 79.979,110.5012 79.977,110.499156 C79.967,110.492 79.955,110.492 79.942,110.485867 C79.927,110.479733 79.911,110.470533 79.893,110.466444 C79.878,110.463378 79.862,110.4644 79.845,110.4644 C79.829,110.4644 79.813,110.463378 79.796,110.466444 C79.778,110.470533 79.762,110.479733 79.745,110.485867 C79.733,110.492 79.72,110.493022 79.71,110.499156 C79.708,110.5012 79.706,110.502222 79.705,110.504267 C79.691,110.513467 79.68,110.527778 79.668,110.540044 C79.656,110.552311 79.643,110.562533 79.633,110.577867 C79.631,110.578889 79.629,110.580933 79.628,110.582978 C79.249,111.205511 78.411,111.608267 77.497,111.608267 C76.584,111.608267 75.748,111.205511 75.368,110.582978 C75.366,110.580933 75.364,110.578889 75.362,110.577867 C75.354,110.562533 75.34,110.552311 75.328,110.540044 C75.315,110.527778 75.305,110.514489 75.291,110.504267 C75.289,110.502222 75.287,110.5012 75.285,110.499156 C75.275,110.492 75.263,110.492 75.251,110.485867 C75.233,110.479733 75.217,110.470533 75.2,110.466444 C75.184,110.463378 75.168,110.4644 75.153,110.4644 C75.137,110.4644 75.121,110.463378 75.106,110.466444 C75.088,110.470533 75.073,110.479733 75.056,110.485867 C75.044,110.492 75.032,110.493022 75.022,110.499156 C75.02,110.5012 75.018,110.502222 75.017,110.504267 C75.002,110.513467 74.992,110.527778 74.98,110.540044 C74.967,110.552311 74.955,110.562533 74.945,110.577867 C74.943,110.578889 74.942,110.580933 74.94,110.582978 C74.56,111.205511 73.723,111.608267 72.81,111.608267 C71.896,111.608267 71.06,111.205511 70.679,110.582978 C70.677,110.580933 70.676,110.578889 70.676,110.578889 C70.665,110.562533 70.652,110.550267 70.638,110.538 C70.627,110.527778 70.617,110.514489 70.604,110.506311 C70.602,110.504267 70.601,110.502222 70.599,110.5012 C70.587,110.493022 70.573,110.492 70.561,110.485867 C70.545,110.479733 70.531,110.471556 70.513,110.468489 C70.498,110.4644 70.482,110.466444 70.465,110.466444 C70.449,110.466444 70.433,110.4644 70.415,110.468489 C70.4,110.471556 70.384,110.479733 70.368,110.485867 C70.356,110.492 70.342,110.493022 70.33,110.5012 C70.328,110.502222 70.326,110.504267 70.325,110.506311 C70.313,110.514489 70.304,110.527778 70.293,110.538 C70.279,110.550267 70.265,110.562533 70.255,110.578889 C70.253,110.580933 70.251,110.582978 70.251,110.582978 C69.872,111.205511 69.035,111.608267 68.121,111.608267 C67.208,111.608267 66.372,111.205511 65.991,110.582978 C65.918,110.461333 65.762,110.425556 65.645,110.5012 C65.526,110.575822 65.492,110.734267 65.565,110.853867 C66.042,111.636889 67.021,112.122444 68.121,112.122444 C69.077,112.122444 69.942,111.754444 70.465,111.1452 C70.987,111.754444 71.852,112.122444 72.808,112.122444 C73.764,112.122444 74.628,111.754444 75.151,111.1452 C75.675,111.754444 76.539,112.122444 77.494,112.122444 C78.45,112.122444 79.313,111.754444 79.837,111.1452 C80.362,111.754444 81.225,112.122444 82.181,112.122444 C83.282,112.122444 84.26,111.636889 84.737,110.853867 C84.818,110.732222 84.781,110.575822 84.664,110.499156 L84.664,110.499156 Z M54.756,125.954133 C54.637,125.878489 54.484,125.916311 54.41,126.035911 C54.031,126.659467 53.194,127.0612 52.28,127.0612 C51.366,127.0612 50.531,126.659467 50.15,126.035911 C50.148,126.033867 50.147,126.032844 50.145,126.0308 C50.136,126.016489 50.122,126.005244 50.11,125.992978 C50.098,125.980711 50.089,125.968444 50.075,125.959244 C50.073,125.9572 50.071,125.955156 50.07,125.954133 C50.059,125.946978 50.047,125.946978 50.035,125.940844 C50.019,125.933689 50.003,125.925511 49.986,125.921422 C49.97,125.918356 49.955,125.919378 49.937,125.919378 C49.921,125.919378 49.905,125.918356 49.888,125.921422 C49.87,125.925511 49.855,125.933689 49.837,125.940844 C49.825,125.946978 49.813,125.948 49.803,125.954133 C49.801,125.955156 49.799,125.9572 49.797,125.959244 C49.783,125.968444 49.773,125.981733 49.76,125.994 C49.748,126.007289 49.736,126.017511 49.726,126.032844 C49.724,126.033867 49.722,126.035911 49.72,126.037956 C49.341,126.660489 48.504,127.063244 47.59,127.063244 C46.677,127.063244 45.841,126.660489 45.46,126.037956 C45.459,126.035911 45.457,126.033867 45.455,126.032844 C45.446,126.017511 45.432,126.007289 45.42,125.994 C45.408,125.981733 45.397,125.969467 45.383,125.959244 C45.382,125.9572 45.38,125.955156 45.378,125.954133 C45.368,125.946978 45.355,125.946978 45.343,125.940844 C45.326,125.933689 45.31,125.925511 45.293,125.921422 C45.277,125.918356 45.261,125.919378 45.245,125.919378 C45.229,125.919378 45.214,125.918356 45.198,125.921422 C45.181,125.925511 45.165,125.933689 45.149,125.940844 C45.137,125.946978 45.125,125.948 45.114,125.954133 C45.112,125.955156 45.111,125.9572 45.109,125.959244 C45.095,125.968444 45.085,125.981733 45.073,125.994 C45.06,126.007289 45.048,126.017511 45.037,126.032844 C45.036,126.033867 45.034,126.035911 45.032,126.037956 C44.653,126.660489 43.816,127.063244 42.902,127.063244 C41.988,127.063244 41.153,126.660489 40.772,126.037956 C40.77,126.035911 40.768,126.033867 40.768,126.033867 C40.758,126.017511 40.744,126.005244 40.73,125.992978 C40.72,125.981733 40.709,125.969467 40.697,125.960267 C40.695,125.959244 40.693,125.9572 40.692,125.955156 C40.679,125.948 40.665,125.946978 40.653,125.940844 C40.638,125.933689 40.623,125.926533 40.606,125.923467 C40.59,125.919378 40.574,125.921422 40.557,125.921422 C40.541,125.921422 40.526,125.919378 40.508,125.923467 C40.492,125.926533 40.477,125.933689 40.461,125.940844 C40.449,125.946978 40.435,125.948 40.422,125.955156 C40.421,125.9572 40.419,125.959244 40.417,125.960267 C40.405,125.969467 40.396,125.981733 40.386,125.992978 C40.372,126.005244 40.358,126.017511 40.347,126.033867 C40.346,126.035911 40.344,126.037956 40.344,126.037956 C39.965,126.660489 39.127,127.063244 38.214,127.063244 C37.3,127.063244 36.465,126.660489 36.084,126.037956 C36.01,125.916311 35.855,125.880533 35.738,125.955156 C35.619,126.0308 35.584,126.189244 35.658,126.308844 C36.134,127.091867 37.113,127.577422 38.214,127.577422 C39.169,127.577422 40.035,127.209422 40.557,126.600178 C41.08,127.209422 41.944,127.577422 42.9,127.577422 C43.856,127.577422 44.721,127.209422 45.243,126.600178 C45.768,127.209422 46.631,127.577422 47.587,127.577422 C48.542,127.577422 49.406,127.209422 49.93,126.600178 C50.454,127.209422 51.317,127.577422 52.273,127.577422 C53.374,127.577422 54.353,127.091867 54.83,126.308844 C54.91,126.1872 54.873,126.0308 54.756,125.954133 L54.756,125.954133 Z M83.025,124.989156 C82.906,124.913511 82.752,124.951333 82.679,125.070933 C82.3,125.694489 81.463,126.096222 80.549,126.096222 C79.635,126.096222 78.798,125.694489 78.419,125.070933 C78.417,125.068889 78.415,125.067867 78.414,125.065822 C78.405,125.051511 78.392,125.041289 78.38,125.030044 C78.368,125.017778 78.358,125.003467 78.344,124.994267 C78.342,124.992222 78.34,124.9912 78.338,124.989156 C78.328,124.982 78.315,124.982 78.305,124.976889 C78.288,124.969733 78.272,124.960533 78.253,124.956444 C78.237,124.953378 78.221,124.955422 78.206,124.955422 C78.19,124.955422 78.174,124.953378 78.159,124.956444 C78.139,124.960533 78.124,124.969733 78.106,124.976889 C78.095,124.982 78.083,124.982 78.073,124.989156 C78.071,124.9912 78.069,124.992222 78.068,124.994267 C78.053,125.003467 78.043,125.017778 78.031,125.030044 C78.019,125.043333 78.006,125.053556 77.997,125.065822 C77.996,125.067867 77.994,125.068889 77.992,125.070933 C77.613,125.694489 76.776,126.096222 75.862,126.096222 C74.948,126.096222 74.113,125.694489 73.732,125.070933 C73.73,125.068889 73.729,125.067867 73.727,125.065822 C73.718,125.051511 73.704,125.041289 73.692,125.028 C73.68,125.015733 73.669,125.001422 73.655,124.992222 C73.653,124.9912 73.652,124.989156 73.65,124.987111 C73.64,124.979956 73.629,124.979956 73.617,124.974844 C73.599,124.967689 73.584,124.958489 73.564,124.955422 C73.549,124.951333 73.535,124.953378 73.519,124.953378 C73.502,124.953378 73.486,124.951333 73.468,124.955422 C73.451,124.958489 73.435,124.967689 73.418,124.974844 C73.406,124.979956 73.393,124.982 73.383,124.987111 C73.381,124.989156 73.379,124.9912 73.377,124.992222 C73.364,125.001422 73.353,125.015733 73.341,125.028 C73.329,125.041289 73.317,125.051511 73.306,125.065822 C73.304,125.067867 73.302,125.068889 73.3,125.070933 C72.922,125.694489 72.086,126.096222 71.171,126.096222 C70.257,126.096222 69.42,125.694489 69.04,125.070933 C68.967,124.950311 68.811,124.913511 68.695,124.989156 C68.576,125.0648 68.541,125.223244 68.614,125.342844 C69.091,126.124844 70.07,126.6104 71.171,126.6104 C72.126,126.6104 72.991,126.243422 73.514,125.634178 C74.036,126.243422 74.901,126.6104 75.857,126.6104 C76.813,126.6104 77.678,126.243422 78.201,125.634178 C78.724,126.243422 79.588,126.6104 80.544,126.6104 C81.645,126.6104 82.623,126.124844 83.1,125.342844 C83.178,125.2212 83.142,125.0648 83.025,124.989156 L83.025,124.989156 Z M48.042,106.743511 C47.829,106.790533 47.605,106.816089 47.376,106.816089 C46.462,106.816089 45.624,106.414356 45.245,105.7908 C45.244,105.788756 45.242,105.787733 45.24,105.785689 C45.232,105.771378 45.219,105.761156 45.207,105.749911 C45.195,105.737644 45.184,105.723333 45.17,105.714133 C45.168,105.712089 45.167,105.711067 45.165,105.709022 C45.155,105.701867 45.142,105.701867 45.132,105.696756 C45.114,105.688578 45.099,105.6804 45.079,105.676311 C45.064,105.673244 45.048,105.675289 45.032,105.675289 C45.016,105.675289 45.001,105.673244 44.985,105.676311 C44.966,105.6804 44.95,105.688578 44.933,105.696756 C44.922,105.701867 44.91,105.701867 44.899,105.709022 C44.898,105.711067 44.896,105.712089 44.894,105.714133 C44.88,105.723333 44.87,105.737644 44.858,105.749911 C44.845,105.7632 44.833,105.773422 44.824,105.785689 C44.823,105.787733 44.821,105.788756 44.819,105.7908 C44.44,106.414356 43.603,106.816089 42.689,106.816089 C41.775,106.816089 40.94,106.414356 40.559,105.7908 C40.557,105.788756 40.555,105.787733 40.554,105.785689 C40.545,105.771378 40.531,105.761156 40.518,105.747867 C40.506,105.7356 40.496,105.721289 40.482,105.712089 C40.48,105.711067 40.479,105.709022 40.477,105.706978 C40.466,105.699822 40.456,105.699822 40.443,105.694711 C40.426,105.687556 40.41,105.678356 40.391,105.675289 C40.375,105.6712 40.361,105.673244 40.346,105.673244 C40.328,105.673244 40.313,105.6712 40.295,105.675289 C40.277,105.678356 40.262,105.687556 40.244,105.694711 C40.232,105.699822 40.22,105.701867 40.209,105.706978 C40.208,105.709022 40.206,105.711067 40.204,105.712089 C40.19,105.721289 40.18,105.7356 40.167,105.747867 C40.155,105.761156 40.143,105.771378 40.132,105.785689 C40.131,105.787733 40.129,105.788756 40.127,105.7908 C39.748,106.414356 38.913,106.816089 37.997,106.816089 C37.781,106.816089 37.569,106.7936 37.366,106.750667 L36.802,107.125822 C37.168,107.258711 37.574,107.330267 37.997,107.330267 C38.953,107.330267 39.818,106.963289 40.34,106.354044 C40.863,106.963289 41.728,107.330267 42.684,107.330267 C43.639,107.330267 44.505,106.963289 45.027,106.354044 C45.551,106.963289 46.414,107.330267 47.37,107.330267 C47.508,107.330267 47.643,107.323111 47.777,107.307778 L48.042,106.743511 L48.042,106.743511 Z M27.751,102.4144 C27.632,102.338756 27.478,102.376578 27.404,102.496178 C27.025,103.119733 26.189,103.521467 25.275,103.521467 C24.361,103.521467 23.523,103.119733 23.144,102.496178 C23.143,102.495156 23.141,102.493111 23.139,102.491067 C23.131,102.476756 23.118,102.466533 23.106,102.455289 C23.094,102.443022 23.083,102.428711 23.069,102.419511 C23.067,102.417467 23.066,102.416444 23.064,102.4144 C23.054,102.407244 23.041,102.407244 23.031,102.402133 C23.013,102.394978 22.998,102.385778 22.978,102.381689 C22.963,102.378622 22.947,102.380667 22.931,102.380667 C22.915,102.380667 22.9,102.378622 22.884,102.381689 C22.865,102.385778 22.849,102.394978 22.832,102.402133 C22.821,102.407244 22.809,102.407244 22.798,102.4144 C22.797,102.416444 22.795,102.417467 22.793,102.419511 C22.779,102.428711 22.769,102.443022 22.757,102.455289 C22.744,102.468578 22.732,102.4788 22.723,102.491067 C22.722,102.493111 22.72,102.495156 22.718,102.496178 C22.339,103.119733 21.502,103.521467 20.588,103.521467 C19.674,103.521467 18.839,103.119733 18.458,102.496178 C18.456,102.495156 18.454,102.493111 18.453,102.491067 C18.444,102.476756 18.43,102.466533 18.418,102.453244 C18.405,102.440978 18.395,102.426667 18.381,102.417467 C18.379,102.416444 18.378,102.4144 18.376,102.412356 C18.365,102.4052 18.355,102.4052 18.342,102.400089 C18.325,102.392933 18.309,102.383733 18.29,102.380667 C18.274,102.376578 18.26,102.378622 18.245,102.378622 C18.227,102.378622 18.212,102.376578 18.194,102.380667 C18.176,102.383733 18.161,102.392933 18.143,102.400089 C18.131,102.4052 18.119,102.407244 18.108,102.412356 C18.107,102.4144 18.105,102.416444 18.103,102.417467 C18.089,102.426667 18.079,102.440978 18.066,102.453244 C18.054,102.466533 18.042,102.476756 18.031,102.491067 C18.03,102.493111 18.028,102.495156 18.026,102.496178 C17.647,103.119733 16.812,103.521467 15.896,103.521467 C14.982,103.521467 14.146,103.119733 13.766,102.496178 C13.693,102.375556 13.537,102.338756 13.42,102.4144 C13.301,102.490044 13.267,102.648489 13.34,102.768089 C13.817,103.550089 14.795,104.036667 15.896,104.036667 C16.852,104.036667 17.717,103.668667 18.239,103.059422 C18.762,103.668667 19.627,104.036667 20.583,104.036667 C21.539,104.036667 22.404,103.668667 22.926,103.059422 C23.45,103.668667 24.313,104.036667 25.269,104.036667 C26.37,104.036667 27.348,103.550089 27.826,102.768089 C27.904,102.646444 27.867,102.490044 27.751,102.4144 L27.751,102.4144 Z M105.032,106.619822 C104.913,106.5452 104.76,106.582 104.686,106.7016 C104.307,107.325156 103.47,107.726889 102.556,107.726889 C101.642,107.726889 100.807,107.325156 100.426,106.7016 C100.424,106.699556 100.423,106.698533 100.421,106.696489 C100.412,106.682178 100.398,106.671956 100.386,106.659689 C100.374,106.6464 100.363,106.634133 100.349,106.622889 C100.347,106.621867 100.346,106.619822 100.344,106.617778 C100.333,106.610622 100.321,106.610622 100.309,106.605511 C100.293,106.598356 100.276,106.589156 100.258,106.586089 C100.242,106.582 100.227,106.584044 100.211,106.584044 C100.195,106.584044 100.18,106.582 100.164,106.586089 C100.146,106.589156 100.131,106.598356 100.113,106.605511 C100.101,106.610622 100.089,106.612667 100.078,106.617778 C100.076,106.619822 100.075,106.621867 100.073,106.622889 C100.059,106.632089 100.049,106.6464 100.036,106.659689 C100.024,106.671956 100.012,106.682178 100.001,106.696489 C100,106.698533 99.998,106.699556 99.996,106.7016 C99.617,107.325156 98.78,107.726889 97.866,107.726889 C96.952,107.726889 96.117,107.325156 95.736,106.7016 C95.734,106.699556 95.732,106.698533 95.731,106.696489 C95.722,106.682178 95.708,106.671956 95.696,106.659689 C95.684,106.6464 95.673,106.634133 95.659,106.622889 C95.657,106.621867 95.655,106.619822 95.654,106.617778 C95.643,106.610622 95.631,106.610622 95.619,106.605511 C95.603,106.598356 95.586,106.589156 95.568,106.586089 C95.553,106.582 95.537,106.584044 95.521,106.584044 C95.506,106.584044 95.49,106.582 95.474,106.586089 C95.456,106.589156 95.441,106.598356 95.423,106.605511 C95.411,106.610622 95.399,106.612667 95.388,106.617778 C95.387,106.619822 95.385,106.621867 95.383,106.622889 C95.369,106.632089 95.358,106.6464 95.346,106.659689 C95.334,106.671956 95.322,106.682178 95.311,106.696489 C95.31,106.698533 95.308,106.699556 95.306,106.7016 C94.927,107.325156 94.09,107.726889 93.176,107.726889 C92.263,107.726889 91.427,107.325156 91.046,106.7016 C91.044,106.699556 91.043,106.698533 91.041,106.696489 C91.032,106.682178 91.018,106.671956 91.006,106.659689 C90.994,106.6464 90.983,106.634133 90.971,106.624933 C90.969,106.622889 90.967,106.621867 90.966,106.619822 C90.955,106.612667 90.943,106.610622 90.931,106.607556 C90.913,106.6004 90.898,106.5912 90.882,106.587111 C90.866,106.584044 90.85,106.586089 90.833,106.586089 C90.817,106.586089 90.802,106.584044 90.784,106.587111 C90.767,106.5912 90.751,106.6004 90.735,106.607556 C90.723,106.612667 90.711,106.614711 90.7,106.619822 C90.698,106.621867 90.697,106.622889 90.695,106.624933 C90.681,106.634133 90.67,106.648444 90.658,106.660711 C90.646,106.672978 90.634,106.684222 90.623,106.698533 C90.622,106.699556 90.62,106.7016 90.618,106.703644 C90.239,107.3272 89.404,107.728933 88.488,107.728933 C87.574,107.728933 86.737,107.3272 86.358,106.703644 C86.356,106.7016 86.354,106.699556 86.353,106.698533 C86.344,106.684222 86.33,106.672978 86.317,106.660711 C86.305,106.648444 86.295,106.636178 86.281,106.624933 L86.276,106.619822 C86.265,106.612667 86.253,106.612667 86.241,106.607556 C86.224,106.6004 86.207,106.5912 86.19,106.587111 C86.174,106.584044 86.159,106.586089 86.143,106.586089 C86.127,106.586089 86.112,106.584044 86.096,106.587111 C86.078,106.5912 86.061,106.6004 86.045,106.607556 C86.035,106.612667 86.022,106.614711 86.01,106.619822 L86.005,106.624933 C85.991,106.634133 85.981,106.648444 85.968,106.660711 C85.956,106.672978 85.944,106.684222 85.935,106.698533 C85.933,106.699556 85.931,106.7016 85.93,106.703644 C85.551,107.3272 84.713,107.728933 83.8,107.728933 C82.886,107.728933 82.05,107.3272 81.67,106.703644 C81.596,106.582 81.441,106.546222 81.323,106.621867 C81.205,106.696489 81.17,106.855956 81.243,106.975556 C81.72,107.757556 82.699,108.243111 83.8,108.243111 C84.755,108.243111 85.621,107.876133 86.143,107.266889 C86.665,107.876133 87.53,108.243111 88.486,108.243111 C89.442,108.243111 90.307,107.876133 90.829,107.266889 C91.352,107.876133 92.217,108.243111 93.173,108.243111 C94.128,108.243111 94.993,107.876133 95.516,107.266889 C96.04,107.876133 96.903,108.243111 97.859,108.243111 C98.815,108.243111 99.678,107.876133 100.203,107.266889 C100.726,107.876133 101.59,108.243111 102.546,108.243111 C103.647,108.243111 104.625,107.757556 105.102,106.975556 C105.188,106.853911 105.151,106.695467 105.032,106.619822 L105.032,106.619822 Z M93.144,96.8596444 C93.026,96.7850222 92.872,96.8218222 92.798,96.9414222 C92.419,97.5649778 91.582,97.9667111 90.668,97.9667111 C89.754,97.9667111 88.919,97.5649778 88.538,96.9414222 C88.536,96.9393778 88.535,96.9383556 88.533,96.9363111 C88.524,96.922 88.51,96.9117778 88.498,96.8995111 C88.486,96.8862222 88.475,96.8739556 88.461,96.8627111 C88.46,96.8616889 88.458,96.8596444 88.456,96.8576 C88.445,96.8504444 88.433,96.8504444 88.421,96.8453333 C88.405,96.8381778 88.388,96.8289778 88.37,96.8259111 C88.354,96.8218222 88.339,96.8238667 88.323,96.8238667 C88.308,96.8238667 88.292,96.8218222 88.276,96.8259111 C88.258,96.8289778 88.243,96.8381778 88.225,96.8453333 C88.213,96.8504444 88.201,96.8524889 88.19,96.8576 C88.188,96.8596444 88.187,96.8616889 88.185,96.8627111 C88.171,96.8719111 88.161,96.8862222 88.148,96.8995111 C88.136,96.9117778 88.124,96.922 88.113,96.9363111 C88.112,96.9383556 88.11,96.9393778 88.108,96.9414222 C87.729,97.5649778 86.892,97.9667111 85.978,97.9667111 C85.064,97.9667111 84.229,97.5649778 83.848,96.9414222 C83.846,96.9393778 83.845,96.9383556 83.843,96.9363111 C83.834,96.922 83.82,96.9117778 83.808,96.8995111 C83.796,96.8862222 83.785,96.8739556 83.771,96.8627111 C83.769,96.8616889 83.767,96.8596444 83.766,96.8576 C83.756,96.8504444 83.743,96.8504444 83.731,96.8453333 C83.715,96.8381778 83.698,96.8289778 83.68,96.8259111 C83.665,96.8218222 83.649,96.8238667 83.633,96.8238667 C83.618,96.8238667 83.602,96.8218222 83.586,96.8259111 C83.568,96.8289778 83.553,96.8381778 83.535,96.8453333 C83.523,96.8504444 83.511,96.8524889 83.501,96.8576 C83.499,96.8596444 83.497,96.8616889 83.495,96.8627111 C83.481,96.8719111 83.471,96.8862222 83.458,96.8995111 C83.446,96.9117778 83.434,96.922 83.423,96.9363111 C83.422,96.9383556 83.42,96.9393778 83.418,96.9414222 C83.039,97.5649778 82.202,97.9667111 81.288,97.9667111 C80.375,97.9667111 79.539,97.5649778 79.158,96.9414222 C79.156,96.9393778 79.155,96.9383556 79.153,96.9363111 C79.144,96.922 79.13,96.9117778 79.118,96.8995111 C79.106,96.8862222 79.095,96.8739556 79.083,96.8647556 C79.081,96.8627111 79.079,96.8616889 79.078,96.8596444 C79.067,96.8524889 79.055,96.8504444 79.043,96.8473778 C79.025,96.8402222 79.01,96.8310222 78.994,96.8269333 C78.978,96.8238667 78.962,96.8259111 78.945,96.8259111 C78.929,96.8259111 78.914,96.8238667 78.896,96.8269333 C78.879,96.8310222 78.863,96.8402222 78.847,96.8473778 C78.835,96.8524889 78.823,96.8545333 78.812,96.8596444 C78.81,96.8616889 78.809,96.8627111 78.807,96.8647556 C78.793,96.8739556 78.783,96.8882667 78.77,96.9005333 C78.758,96.9128 78.746,96.9240444 78.735,96.9383556 C78.734,96.9393778 78.732,96.9414222 78.73,96.9434667 C78.351,97.5670222 77.516,97.9687556 76.6,97.9687556 C75.686,97.9687556 74.849,97.5670222 74.47,96.9434667 C74.468,96.9414222 74.466,96.9393778 74.465,96.9383556 C74.456,96.9240444 74.442,96.9128 74.43,96.9005333 C74.417,96.8882667 74.407,96.876 74.393,96.8647556 C74.391,96.8627111 74.39,96.8616889 74.388,96.8596444 C74.377,96.8524889 74.365,96.8524889 74.353,96.8473778 C74.336,96.8402222 74.319,96.8310222 74.302,96.8269333 C74.286,96.8238667 74.271,96.8259111 74.255,96.8259111 C74.239,96.8259111 74.224,96.8238667 74.208,96.8269333 C74.19,96.8310222 74.173,96.8402222 74.157,96.8473778 C74.147,96.8524889 74.134,96.8545333 74.122,96.8596444 C74.12,96.8616889 74.119,96.8627111 74.117,96.8647556 C74.103,96.8739556 74.093,96.8882667 74.08,96.9005333 C74.068,96.9128 74.056,96.9240444 74.047,96.9383556 C74.045,96.9393778 74.043,96.9414222 74.042,96.9434667 C73.663,97.5670222 72.825,97.9687556 71.912,97.9687556 C70.998,97.9687556 70.162,97.5670222 69.782,96.9434667 C69.708,96.8218222 69.553,96.7860444 69.435,96.8616889 C69.317,96.9363111 69.282,97.0957778 69.355,97.2153778 C69.832,97.9973778 70.811,98.4829333 71.912,98.4829333 C72.867,98.4829333 73.733,98.1159556 74.255,97.5067111 C74.778,98.1159556 75.642,98.4829333 76.598,98.4829333 C77.554,98.4829333 78.419,98.1159556 78.941,97.5067111 C79.464,98.1159556 80.329,98.4829333 81.285,98.4829333 C82.24,98.4829333 83.105,98.1159556 83.628,97.5067111 C84.152,98.1159556 85.015,98.4829333 85.971,98.4829333 C86.927,98.4829333 87.79,98.1159556 88.315,97.5067111 C88.839,98.1159556 89.702,98.4829333 90.658,98.4829333 C91.759,98.4829333 92.737,97.9973778 93.214,97.2153778 C93.3,97.0937333 93.263,96.9342667 93.144,96.8596444 L93.144,96.8596444 Z" id="Fill-20" fill="#333333"></path>
                        <path d="M166.876,80.1125778 C166.758,80.0369333 166.604,80.0747556 166.53,80.1943556 C166.151,80.8179111 165.314,81.2196444 164.4,81.2196444 C163.486,81.2196444 162.651,80.8179111 162.271,80.1943556 C162.269,80.1923111 162.267,80.1902667 162.265,80.1892444 C162.256,80.1739111 162.242,80.1636889 162.23,80.1514222 C162.218,80.1391556 162.207,80.1258667 162.194,80.1156444 C162.192,80.1136 162.19,80.1125778 162.188,80.1105333 C162.177,80.1033778 162.165,80.1033778 162.153,80.0972444 C162.138,80.0911111 162.12,80.0819111 162.102,80.0778222 C162.087,80.0747556 162.071,80.0757778 162.055,80.0757778 C162.04,80.0757778 162.024,80.0747556 162.008,80.0778222 C161.99,80.0819111 161.975,80.0911111 161.957,80.0972444 C161.945,80.1033778 161.933,80.1044 161.922,80.1105333 C161.921,80.1125778 161.919,80.1136 161.917,80.1156444 C161.903,80.1248444 161.893,80.1391556 161.88,80.1514222 C161.868,80.1636889 161.856,80.1739111 161.845,80.1892444 C161.844,80.1902667 161.842,80.1923111 161.841,80.1943556 C161.461,80.8179111 160.624,81.2196444 159.71,81.2196444 C158.797,81.2196444 157.961,80.8179111 157.58,80.1943556 C157.578,80.1923111 157.577,80.1902667 157.575,80.1892444 C157.566,80.1739111 157.552,80.1636889 157.54,80.1514222 C157.528,80.1391556 157.517,80.1258667 157.503,80.1156444 C157.501,80.1136 157.5,80.1125778 157.498,80.1105333 C157.488,80.1033778 157.475,80.1033778 157.463,80.0972444 C157.447,80.0911111 157.43,80.0819111 157.412,80.0778222 C157.397,80.0747556 157.381,80.0757778 157.366,80.0757778 C157.35,80.0757778 157.334,80.0747556 157.318,80.0778222 C157.301,80.0819111 157.285,80.0911111 157.267,80.0972444 C157.255,80.1033778 157.243,80.1044 157.233,80.1105333 C157.231,80.1125778 157.229,80.1136 157.227,80.1156444 C157.213,80.1248444 157.203,80.1391556 157.191,80.1514222 C157.178,80.1636889 157.166,80.1739111 157.156,80.1892444 C157.154,80.1902667 157.152,80.1923111 157.15,80.1943556 C156.771,80.8179111 155.934,81.2196444 155.02,81.2196444 C154.107,81.2196444 153.271,80.8179111 152.89,80.1943556 C152.889,80.1923111 152.887,80.1902667 152.885,80.1892444 C152.876,80.1739111 152.862,80.1636889 152.85,80.1514222 C152.838,80.1391556 152.827,80.1258667 152.815,80.1166667 C152.813,80.1156444 152.812,80.1136 152.81,80.1125778 C152.8,80.1044 152.787,80.1033778 152.775,80.0992889 C152.757,80.0921333 152.742,80.0829333 152.726,80.0798667 C152.71,80.0757778 152.694,80.0778222 152.677,80.0778222 C152.661,80.0778222 152.646,80.0757778 152.628,80.0798667 C152.611,80.0829333 152.595,80.0921333 152.579,80.0992889 C152.567,80.1044 152.555,80.1064444 152.544,80.1125778 C152.542,80.1136 152.541,80.1156444 152.539,80.1166667 C152.525,80.1258667 152.515,80.1401778 152.503,80.1524444 C152.49,80.1657333 152.478,80.1759556 152.467,80.1902667 C152.466,80.1923111 152.464,80.1943556 152.462,80.1953778 C152.083,80.8189333 151.248,81.2206667 150.332,81.2206667 C149.418,81.2206667 148.581,80.8189333 148.202,80.1953778 C148.2,80.1943556 148.198,80.1923111 148.197,80.1902667 C148.188,80.1759556 148.174,80.1657333 148.162,80.1524444 C148.15,80.1401778 148.139,80.1279111 148.125,80.1166667 C148.123,80.1156444 148.122,80.1136 148.12,80.1125778 C148.109,80.1044 148.097,80.1044 148.085,80.0992889 C148.068,80.0921333 148.052,80.0829333 148.034,80.0798667 C148.018,80.0757778 148.003,80.0778222 147.987,80.0778222 C147.971,80.0778222 147.956,80.0757778 147.94,80.0798667 C147.922,80.0829333 147.905,80.0921333 147.889,80.0992889 C147.879,80.1044 147.866,80.1064444 147.854,80.1125778 C147.852,80.1136 147.851,80.1156444 147.849,80.1166667 C147.835,80.1258667 147.825,80.1401778 147.812,80.1524444 C147.8,80.1657333 147.788,80.1759556 147.779,80.1902667 C147.777,80.1923111 147.776,80.1943556 147.774,80.1953778 C147.395,80.8189333 146.557,81.2206667 145.644,81.2206667 C144.73,81.2206667 143.894,80.8189333 143.514,80.1953778 C143.441,80.0747556 143.285,80.0389778 143.168,80.1136 C143.049,80.1892444 143.014,80.3476889 143.088,80.4672889 C143.564,81.2503111 144.543,81.7358667 145.644,81.7358667 C146.6,81.7358667 147.465,81.3678667 147.987,80.7586222 C148.51,81.3678667 149.374,81.7358667 150.33,81.7358667 C151.286,81.7358667 152.151,81.3678667 152.673,80.7586222 C153.196,81.3678667 154.061,81.7358667 155.017,81.7358667 C155.973,81.7358667 156.838,81.3678667 157.36,80.7586222 C157.884,81.3678667 158.747,81.7358667 159.703,81.7358667 C160.659,81.7358667 161.522,81.3678667 162.047,80.7586222 C162.571,81.3678667 163.434,81.7358667 164.39,81.7358667 C165.491,81.7358667 166.469,81.2503111 166.946,80.4672889 C167.032,80.3456444 166.995,80.1872 166.876,80.1125778" id="Fill-21" fill="#333333"></path>
                        <path d="M131.678,87.3478667 C131.559,87.2722222 131.405,87.3100444 131.332,87.4296444 C130.952,88.0532 130.116,88.4549333 129.202,88.4549333 C128.288,88.4549333 127.453,88.0532 127.072,87.4296444 C127.07,87.4276 127.068,87.4255556 127.067,87.4245333 C127.057,87.4092 127.044,87.3989778 127.032,87.3867111 C127.019,87.3744444 127.009,87.3611556 126.995,87.3509333 C126.993,87.3488889 126.991,87.3478667 126.989,87.3458222 C126.979,87.3386667 126.967,87.3386667 126.955,87.3325333 C126.939,87.3264 126.922,87.3172 126.904,87.3131111 C126.888,87.3100444 126.872,87.3110667 126.857,87.3110667 C126.841,87.3110667 126.825,87.3100444 126.81,87.3131111 C126.792,87.3172 126.776,87.3264 126.759,87.3325333 C126.747,87.3386667 126.735,87.3396889 126.724,87.3458222 C126.722,87.3478667 126.72,87.3488889 126.718,87.3509333 C126.705,87.3601333 126.694,87.3744444 126.682,87.3867111 C126.67,87.3989778 126.658,87.4092 126.647,87.4245333 C126.645,87.4255556 126.643,87.4276 126.642,87.4296444 C126.263,88.0532 125.426,88.4549333 124.512,88.4549333 C123.598,88.4549333 122.763,88.0532 122.382,87.4296444 C122.38,87.4276 122.378,87.4255556 122.376,87.4245333 C122.368,87.4092 122.354,87.3989778 122.341,87.3867111 C122.329,87.3744444 122.319,87.3611556 122.305,87.3509333 C122.303,87.3488889 122.301,87.3478667 122.3,87.3458222 C122.289,87.3386667 122.277,87.3386667 122.264,87.3325333 C122.249,87.3264 122.231,87.3172 122.214,87.3131111 C122.198,87.3100444 122.182,87.3110667 122.167,87.3110667 C122.151,87.3110667 122.135,87.3100444 122.119,87.3131111 C122.102,87.3172 122.086,87.3264 122.069,87.3325333 C122.057,87.3386667 122.044,87.3396889 122.034,87.3458222 C122.032,87.3478667 122.03,87.3488889 122.029,87.3509333 C122.015,87.3601333 122.004,87.3744444 121.992,87.3867111 C121.98,87.3989778 121.967,87.4092 121.957,87.4245333 C121.955,87.4255556 121.953,87.4276 121.952,87.4296444 C121.573,88.0532 120.735,88.4549333 119.822,88.4549333 C118.908,88.4549333 118.072,88.0532 117.692,87.4296444 C117.69,87.4276 117.688,87.4255556 117.686,87.4245333 C117.678,87.4092 117.664,87.3989778 117.651,87.3867111 C117.639,87.3744444 117.629,87.3611556 117.617,87.3529778 C117.615,87.3509333 117.613,87.3488889 117.611,87.3478667 C117.601,87.3396889 117.588,87.3386667 117.576,87.3345778 C117.559,87.3274222 117.543,87.3182222 117.528,87.3151556 C117.512,87.3110667 117.496,87.3131111 117.478,87.3131111 C117.463,87.3131111 117.447,87.3110667 117.43,87.3151556 C117.412,87.3182222 117.397,87.3274222 117.38,87.3345778 C117.368,87.3396889 117.356,87.3417333 117.345,87.3478667 C117.344,87.3488889 117.342,87.3509333 117.341,87.3529778 C117.326,87.3611556 117.316,87.3754667 117.304,87.3877333 C117.291,87.4010222 117.279,87.4112444 117.269,87.4255556 C117.267,87.4276 117.265,87.4296444 117.264,87.4306667 C116.884,88.0542222 116.049,88.4559556 115.134,88.4559556 C114.22,88.4559556 113.383,88.0542222 113.003,87.4306667 C113.001,87.4296444 113,87.4276 112.998,87.4255556 C112.989,87.4112444 112.976,87.4010222 112.963,87.3877333 C112.951,87.3754667 112.941,87.3632 112.926,87.3529778 C112.924,87.3509333 112.923,87.3488889 112.921,87.3478667 C112.911,87.3396889 112.899,87.3396889 112.886,87.3345778 C112.869,87.3274222 112.853,87.3182222 112.836,87.3151556 C112.82,87.3110667 112.804,87.3131111 112.789,87.3131111 C112.773,87.3131111 112.757,87.3110667 112.741,87.3151556 C112.724,87.3182222 112.706,87.3274222 112.691,87.3345778 C112.68,87.3396889 112.668,87.3417333 112.656,87.3478667 C112.654,87.3488889 112.652,87.3509333 112.65,87.3529778 C112.637,87.3611556 112.626,87.3754667 112.614,87.3877333 C112.602,87.4010222 112.589,87.4112444 112.58,87.4255556 C112.579,87.4276 112.577,87.4296444 112.575,87.4306667 C112.196,88.0542222 111.359,88.4559556 110.445,88.4559556 C109.531,88.4559556 108.696,88.0542222 108.315,87.4306667 C108.242,87.3100444 108.086,87.2742667 107.969,87.3488889 C107.85,87.4245333 107.816,87.5829778 107.889,87.7025778 C108.366,88.4856 109.345,88.9711556 110.445,88.9711556 C111.401,88.9711556 112.266,88.6031556 112.789,87.9939111 C113.311,88.6031556 114.176,88.9711556 115.132,88.9711556 C116.088,88.9711556 116.952,88.6031556 117.475,87.9939111 C117.997,88.6031556 118.862,88.9711556 119.818,88.9711556 C120.774,88.9711556 121.639,88.6031556 122.162,87.9939111 C122.686,88.6031556 123.549,88.9711556 124.505,88.9711556 C125.461,88.9711556 126.324,88.6031556 126.848,87.9939111 C127.372,88.6031556 128.235,88.9711556 129.191,88.9711556 C130.292,88.9711556 131.27,88.4856 131.748,87.7025778 C131.833,87.5809333 131.797,87.4224889 131.678,87.3478667" id="Fill-22" fill="#333333"></path>
                        <path d="M143.416,80.1125778 C143.297,80.0369333 143.143,80.0747556 143.07,80.1943556 C142.691,80.8179111 141.854,81.2196444 140.94,81.2196444 C140.026,81.2196444 139.191,80.8179111 138.81,80.1943556 C138.808,80.1923111 138.807,80.1902667 138.805,80.1892444 C138.796,80.1739111 138.782,80.1636889 138.77,80.1514222 C138.757,80.1391556 138.747,80.1258667 138.733,80.1156444 C138.731,80.1136 138.73,80.1125778 138.728,80.1105333 C138.717,80.1033778 138.705,80.1033778 138.693,80.0972444 C138.677,80.0911111 138.66,80.0819111 138.642,80.0778222 C138.626,80.0747556 138.611,80.0757778 138.595,80.0757778 C138.579,80.0757778 138.564,80.0747556 138.548,80.0778222 C138.53,80.0819111 138.514,80.0911111 138.497,80.0972444 C138.485,80.1033778 138.473,80.1044 138.462,80.1105333 C138.46,80.1125778 138.458,80.1136 138.457,80.1156444 C138.443,80.1248444 138.432,80.1391556 138.42,80.1514222 C138.408,80.1636889 138.396,80.1739111 138.385,80.1892444 C138.383,80.1902667 138.381,80.1923111 138.38,80.1943556 C138.001,80.8179111 137.164,81.2196444 136.25,81.2196444 C135.336,81.2196444 134.501,80.8179111 134.12,80.1943556 C134.118,80.1923111 134.116,80.1902667 134.114,80.1892444 C134.106,80.1739111 134.092,80.1636889 134.08,80.1514222 C134.068,80.1391556 134.057,80.1258667 134.043,80.1156444 C134.041,80.1136 134.039,80.1125778 134.038,80.1105333 C134.027,80.1033778 134.015,80.1033778 134.003,80.0972444 C133.987,80.0911111 133.969,80.0819111 133.952,80.0778222 C133.936,80.0747556 133.921,80.0757778 133.905,80.0757778 C133.889,80.0757778 133.873,80.0747556 133.858,80.0778222 C133.84,80.0819111 133.825,80.0911111 133.807,80.0972444 C133.795,80.1033778 133.783,80.1044 133.772,80.1105333 C133.771,80.1125778 133.769,80.1136 133.767,80.1156444 C133.753,80.1248444 133.742,80.1391556 133.73,80.1514222 C133.718,80.1636889 133.706,80.1739111 133.695,80.1892444 C133.694,80.1902667 133.692,80.1923111 133.69,80.1943556 C133.311,80.8179111 132.474,81.2196444 131.56,81.2196444 C130.646,81.2196444 129.811,80.8179111 129.43,80.1943556 C129.428,80.1923111 129.426,80.1902667 129.425,80.1892444 C129.416,80.1739111 129.402,80.1636889 129.39,80.1514222 C129.378,80.1391556 129.367,80.1258667 129.355,80.1166667 C129.353,80.1156444 129.351,80.1136 129.35,80.1125778 C129.339,80.1044 129.327,80.1033778 129.315,80.0992889 C129.297,80.0921333 129.281,80.0829333 129.266,80.0798667 C129.25,80.0757778 129.234,80.0778222 129.217,80.0778222 C129.201,80.0778222 129.185,80.0757778 129.168,80.0798667 C129.15,80.0829333 129.135,80.0921333 129.119,80.0992889 C129.107,80.1044 129.095,80.1064444 129.084,80.1125778 C129.082,80.1136 129.081,80.1156444 129.079,80.1166667 C129.065,80.1258667 129.054,80.1401778 129.042,80.1524444 C129.03,80.1657333 129.018,80.1759556 129.007,80.1902667 C129.005,80.1923111 129.004,80.1943556 129.002,80.1953778 C128.623,80.8189333 127.787,81.2206667 126.872,81.2206667 C125.958,81.2206667 125.121,80.8189333 124.741,80.1953778 C124.74,80.1943556 124.738,80.1923111 124.737,80.1902667 C124.728,80.1759556 124.714,80.1657333 124.701,80.1524444 C124.689,80.1401778 124.679,80.1279111 124.665,80.1166667 C124.663,80.1156444 124.661,80.1136 124.66,80.1125778 C124.649,80.1044 124.637,80.1044 124.625,80.0992889 C124.607,80.0921333 124.591,80.0829333 124.574,80.0798667 C124.558,80.0757778 124.543,80.0778222 124.527,80.0778222 C124.511,80.0778222 124.496,80.0757778 124.479,80.0798667 C124.462,80.0829333 124.444,80.0921333 124.429,80.0992889 C124.418,80.1044 124.406,80.1064444 124.394,80.1125778 C124.392,80.1136 124.39,80.1156444 124.389,80.1166667 C124.375,80.1258667 124.364,80.1401778 124.352,80.1524444 C124.34,80.1657333 124.327,80.1759556 124.319,80.1902667 C124.317,80.1923111 124.315,80.1943556 124.313,80.1953778 C123.934,80.8189333 123.097,81.2206667 122.184,81.2206667 C121.27,81.2206667 120.434,80.8189333 120.054,80.1953778 C119.98,80.0747556 119.824,80.0389778 119.707,80.1136 C119.589,80.1892444 119.554,80.3476889 119.627,80.4672889 C120.104,81.2503111 121.083,81.7358667 122.184,81.7358667 C123.139,81.7358667 124.004,81.3678667 124.527,80.7586222 C125.049,81.3678667 125.914,81.7358667 126.87,81.7358667 C127.826,81.7358667 128.691,81.3678667 129.213,80.7586222 C129.736,81.3678667 130.601,81.7358667 131.557,81.7358667 C132.512,81.7358667 133.377,81.3678667 133.9,80.7586222 C134.424,81.3678667 135.287,81.7358667 136.243,81.7358667 C137.199,81.7358667 138.062,81.3678667 138.586,80.7586222 C139.11,81.3678667 139.974,81.7358667 140.93,81.7358667 C142.03,81.7358667 143.009,81.2503111 143.486,80.4672889 C143.571,80.3456444 143.535,80.1872 143.416,80.1125778" id="Fill-23" fill="#333333"></path>
                    </g>
                </g>
            </g>
        </g>
    </g>
</svg>