<?xml version="1.0" encoding="UTF-8" standalone="no"?>
<svg width="194px" height="194px" viewBox="0 0 194 194" version="1.1" xmlns="http://www.w3.org/2000/svg" xmlns:xlink="http://www.w3.org/1999/xlink" xmlns:sketch="http://www.bohemiancoding.com/sketch/ns">
    <!-- Generator: Sketch 3.3.2 (12043) - http://www.bohemiancoding.com/sketch -->
    <title>Imported Layers</title>
    <desc>Created with Sketch.</desc>
    <defs></defs>
    <g id="Landing" stroke="none" stroke-width="1" fill="none" fill-rule="evenodd" sketch:type="MSPage">
        <g id="Desktop-HD" sketch:type="MSArtboardGroup" transform="translate(-861.000000, -1570.000000)">
            <g id="How-it-works" sketch:type="MSLayerGroup" transform="translate(223.000000, 1180.000000)">
                <g id="4col" transform="translate(572.000000, 274.000000)" sketch:type="MSShapeGroup">
                    <g id="Imported-Layers" transform="translate(68.000000, 118.000000)">
                        <path d="M126.408,41.69 C125.634,42.363 123.934,41.914 122.293,40.7 C122.456,40.274 122.364,39.733 122.038,39.28 L126.68,34.638 C127.477,35.541 127.962,36.725 127.962,38.021 C127.962,39.459 127.366,40.759 126.408,41.69 L126.408,41.69 Z M122.844,43.139 C121.548,43.139 120.364,42.654 119.461,41.857 L120.265,41.053 C120.565,41.269 120.908,41.391 121.242,41.391 C121.484,41.391 121.709,41.325 121.893,41.203 C123.001,42.031 124.132,42.523 125.089,42.619 C124.411,42.952 123.649,43.139 122.844,43.139 L122.844,43.139 Z M117.726,38.021 C117.726,37.217 117.913,36.455 118.245,35.777 C118.342,36.734 118.836,37.865 119.663,38.973 C119.37,39.419 119.431,40.07 119.812,40.6 L119.009,41.404 C118.211,40.502 117.726,39.317 117.726,38.021 L117.726,38.021 Z M121.603,40.619 C121.494,40.729 121.347,40.752 121.242,40.752 C120.985,40.752 120.697,40.618 120.472,40.392 C120.104,40.024 120.001,39.507 120.246,39.261 C120.356,39.151 120.503,39.129 120.608,39.129 C120.865,39.129 121.153,39.263 121.377,39.488 C121.745,39.856 121.849,40.374 121.603,40.619 L121.603,40.619 Z M119.173,34.46 C120.104,33.501 121.405,32.903 122.844,32.903 C124.14,32.903 125.325,33.388 126.227,34.185 L121.584,38.828 C121.285,38.612 120.942,38.49 120.608,38.49 C120.45,38.49 120.3,38.518 120.164,38.571 C118.952,36.932 118.503,35.234 119.173,34.46 L119.173,34.46 Z M128.602,38.021 C128.602,34.847 126.019,32.263 122.844,32.263 C121.257,32.263 119.817,32.909 118.774,33.952 L118.773,33.95 C118.744,33.979 118.718,34.009 118.691,34.04 C117.698,35.075 117.086,36.478 117.086,38.021 C117.086,41.196 119.669,43.779 122.844,43.779 C124.403,43.779 125.818,43.155 126.856,42.146 C126.875,42.128 126.896,42.112 126.915,42.092 L126.913,42.09 C127.956,41.048 128.602,39.609 128.602,38.021 L128.602,38.021 Z" id="Fill-1" fill="#333333"></path>
                        <path d="M60.411,37.876 C61.514,37.915 62.438,37.054 62.481,35.952 C62.52,34.849 61.655,33.921 60.56,33.886 C59.454,33.843 58.529,34.708 58.49,35.806 C58.448,36.909 59.309,37.833 60.411,37.876" id="Fill-2" fill="#333333"></path>
                        <path d="M83.385,61.513 C80.43,61.827 70.582,62.257 60.828,62.386 C60.753,62.24 60.639,62.112 60.482,62.027 C60.386,61.974 60.266,61.931 60.096,61.871 C59.372,61.616 58.979,61.392 58.922,61.204 C58.774,60.698 59.149,58.071 59.848,56.554 C60.535,55.059 61.095,53.918 61.099,53.903 L61.138,53.825 L61.155,53.741 L61.549,51.826 L61.555,51.791 L61.559,51.756 C61.581,51.543 62.07,46.585 62.102,45.802 C62.109,45.624 62.176,45.504 62.24,45.43 C62.289,45.432 62.339,45.432 62.392,45.432 C63.721,45.432 65.415,44.302 65.919,43.944 C66.925,43.703 67.482,42.838 67.425,42.126 C67.379,41.534 66.929,41.12 66.333,41.12 C65.894,41.12 65.415,41.332 64.863,41.771 C64.296,42.221 63.736,42.452 63.197,42.452 C62.949,42.452 62.754,42.403 62.619,42.356 C62.544,42.02 62.417,41.308 62.304,40.049 C62.194,38.78 61.361,38.021 60.075,38.021 C59.45,38.021 58.926,38.195 58.87,38.216 L58.692,38.277 L58.571,38.419 C58.558,38.433 57.193,40.042 55.789,41.576 C54.177,43.342 54.8,44.727 54.949,44.997 L56.807,48.467 L56.716,48.53 C56.769,48.695 56.811,48.863 56.842,49.034 L56.987,48.934 L56.977,51.139 C57.083,54.191 56.491,55.18 56.484,55.186 L56.466,55.212 L56.463,55.219 C55.445,56.952 55.24,59.195 55.077,60.996 C55.042,61.392 55.006,61.764 54.967,62.095 C54.951,62.228 54.94,62.344 54.928,62.46 C43.682,62.602 26.571,62.822 25.624,62.867 C22.069,63.034 18.713,63.941 25.875,64.77 C33.039,65.596 63.105,65.77 68.208,65.373 C73.315,64.973 82.736,63.778 84.551,62.714 C86.369,61.651 86.384,61.197 83.385,61.513" id="Fill-3" fill="#333333"></path>
                        <path d="M32.193,166.247 C12.461,148.839 0,123.382 0,95 C0,42.533 42.533,0 95,0 C147.467,0 190,42.533 190,95 C190,147.467 147.467,190 95,190 C73.943,190 54.496,183.138 38.747,171.544 C36.481,169.876 34.299,168.105 32.193,166.247 L32.193,166.247 Z" id="Stroke-4" stroke="#333333" stroke-width="3"></path>
                        <path d="M57.587,47.941 L58.416,49.024 C58.516,49.155 58.491,49.343 58.36,49.443 C58.23,49.543 58.041,49.518 57.941,49.388 L57.112,48.305 C57.012,48.174 57.037,47.986 57.168,47.886 C57.298,47.786 57.487,47.811 57.587,47.941" id="Fill-5" fill="#333333"></path>
                        <path d="M73.191,36.429 L57.406,48.516 L57.831,49.072 L73.616,36.985 L73.191,36.429" id="Fill-6" fill="#333333"></path>
                        <path d="M79.518,32.024 C78.812,31.097 77.556,30.936 76.48,31.755 C74.1,33.583 74.972,35.004 73.023,36.572 C72.963,36.62 72.958,36.716 73.012,36.787 L73.226,37.066 C73.28,37.137 73.373,37.157 73.436,37.111 C75.456,35.639 76.601,36.849 78.986,35.028 C80.057,34.202 80.227,32.945 79.518,32.024 L79.518,32.024 Z M77.276,33.751 C76.79,33.117 76.903,32.159 77.407,31.773 C77.934,31.37 78.844,31.845 79.185,32.289 C79.525,32.733 79.746,33.737 79.22,34.14 C78.716,34.525 77.761,34.385 77.276,33.751 L77.276,33.751 Z" id="Fill-7" fill="#333333"></path>
                        <path d="M136.513,117.191 C134.392,117.266 132.613,115.61 132.531,113.489 C132.456,111.368 134.119,109.582 136.226,109.514 C138.354,109.432 140.133,111.095 140.208,113.209 C140.29,115.33 138.634,117.109 136.513,117.191" id="Fill-8" fill="#333333"></path>
                        <path d="M154.358,170.454 C139.351,170.554 125.816,170.43 121.512,170.095 C111.685,169.325 93.559,167.026 90.068,164.98 C86.57,162.934 86.542,162.061 92.311,162.669 C97.997,163.274 116.943,164.101 135.711,164.349 C135.856,164.067 136.075,163.822 136.377,163.659 C136.562,163.556 136.792,163.474 137.12,163.358 C138.511,162.866 139.267,162.437 139.377,162.075 C139.664,161.101 138.941,156.047 137.597,153.129 C136.275,150.252 135.196,148.056 135.189,148.028 L135.114,147.877 L135.081,147.715 L134.323,144.031 L134.311,143.964 L134.304,143.895 C134.262,143.487 133.321,133.947 133.26,132.44 C133.246,132.098 133.117,131.868 132.995,131.724 C132.899,131.73 132.803,131.73 132.702,131.73 C130.144,131.73 126.885,129.554 125.916,128.867 C123.98,128.402 122.908,126.739 123.018,125.368 C123.107,124.23 123.973,123.432 125.118,123.432 C125.963,123.432 126.885,123.841 127.948,124.686 C129.039,125.552 130.116,125.995 131.153,125.995 C131.63,125.995 132.005,125.901 132.265,125.812 C132.409,125.164 132.653,123.794 132.871,121.372 C133.082,118.93 134.685,117.471 137.16,117.471 C138.361,117.471 139.37,117.806 139.479,117.846 L139.821,117.963 L140.053,118.235 C140.079,118.263 142.705,121.358 145.405,124.31 C148.507,127.707 147.308,130.373 147.022,130.892 L143.447,137.568 L143.623,137.69 C143.521,138.006 143.44,138.33 143.38,138.659 L143.102,138.467 L143.12,142.71 C142.916,148.581 144.056,150.484 144.068,150.496 L144.103,150.545 L144.11,150.559 C146.067,153.893 146.461,158.209 146.776,161.674 C146.844,162.437 146.912,163.152 146.987,163.788 C147.018,164.044 147.04,164.268 147.062,164.492 C151.132,164.543 155.601,164.6 160.188,164.659" id="Fill-9" fill="#333333"></path>
                        <path id="Fill-10" fill="#333333"></path>
                        <path d="M142.386,133.034 L143.401,129.571 C143.468,129.342 143.711,129.209 143.941,129.276 L144.416,129.415 C144.645,129.483 144.778,129.726 144.711,129.955 L143.696,133.418 C143.628,133.647 143.385,133.78 143.156,133.713 L142.681,133.574 C142.451,133.506 142.319,133.263 142.386,133.034" id="Fill-11" fill="#333333"></path>
                        <path d="M100.796,119.335 L144.451,132.134 L144.893,130.628 L101.237,117.829 L100.796,119.335" id="Fill-12" fill="#333333"></path>
                        <path d="M83.647,113.503 C82.891,116.053 84.29,118.582 87.25,119.46 C93.827,121.378 95.267,117.855 100.784,119.33 C100.955,119.376 101.139,119.256 101.196,119.061 L101.422,118.291 C101.479,118.096 101.389,117.896 101.22,117.842 C95.784,116.107 96.469,112.366 89.898,110.43 C86.932,109.57 84.386,110.953 83.647,113.503 L83.647,113.503 Z M89.852,115.303 C89.339,117.053 87.421,118.136 86.031,117.729 C84.578,117.303 84.225,114.984 84.585,113.758 C84.944,112.533 86.493,110.772 87.946,111.198 C89.336,111.605 90.365,113.552 89.852,115.303 L89.852,115.303 Z" id="Fill-13" fill="#333333"></path>
                        <path d="M85.164,108.097 C85.045,108.023 84.891,108.06 84.818,108.177 C84.439,108.787 83.602,109.18 82.688,109.18 C81.774,109.18 80.939,108.787 80.558,108.177 C80.556,108.175 80.554,108.174 80.552,108.172 C80.544,108.158 80.53,108.147 80.517,108.135 C80.505,108.123 80.496,108.111 80.482,108.102 C80.481,108.1 80.479,108.099 80.477,108.097 C80.467,108.09 80.455,108.09 80.442,108.084 C80.426,108.078 80.411,108.069 80.393,108.065 C80.378,108.062 80.362,108.063 80.345,108.063 C80.329,108.063 80.313,108.062 80.295,108.065 C80.278,108.069 80.262,108.078 80.245,108.084 C80.233,108.09 80.22,108.091 80.21,108.097 C80.208,108.099 80.206,108.1 80.205,108.102 C80.191,108.111 80.18,108.125 80.168,108.137 C80.156,108.149 80.143,108.159 80.133,108.174 C80.131,108.175 80.13,108.177 80.128,108.179 C79.749,108.788 78.911,109.182 77.997,109.182 C77.084,109.182 76.248,108.788 75.868,108.179 C75.866,108.177 75.864,108.175 75.862,108.174 C75.854,108.159 75.84,108.149 75.827,108.137 C75.815,108.125 75.805,108.112 75.791,108.102 C75.789,108.1 75.787,108.099 75.785,108.097 C75.775,108.09 75.763,108.09 75.751,108.084 C75.733,108.078 75.718,108.069 75.7,108.065 C75.684,108.062 75.668,108.063 75.653,108.063 C75.637,108.063 75.621,108.062 75.606,108.065 C75.588,108.069 75.573,108.078 75.557,108.084 C75.544,108.09 75.532,108.091 75.522,108.097 C75.52,108.099 75.518,108.1 75.517,108.102 C75.502,108.111 75.492,108.125 75.48,108.137 C75.467,108.149 75.455,108.159 75.445,108.174 C75.443,108.175 75.441,108.177 75.44,108.179 C75.06,108.788 74.223,109.182 73.309,109.182 C72.396,109.182 71.56,108.788 71.179,108.179 C71.177,108.177 71.176,108.175 71.176,108.175 C71.165,108.159 71.152,108.147 71.138,108.135 C71.127,108.125 71.117,108.112 71.104,108.104 C71.102,108.102 71.101,108.1 71.099,108.099 C71.087,108.091 71.073,108.09 71.061,108.084 C71.045,108.078 71.031,108.07 71.013,108.067 C70.998,108.063 70.982,108.065 70.965,108.065 C70.949,108.065 70.933,108.063 70.915,108.067 C70.9,108.07 70.884,108.078 70.868,108.084 C70.856,108.09 70.842,108.091 70.83,108.099 C70.828,108.1 70.826,108.102 70.825,108.104 C70.812,108.112 70.804,108.125 70.793,108.135 C70.779,108.147 70.765,108.159 70.755,108.175 C70.753,108.177 70.751,108.179 70.751,108.179 C70.372,108.788 69.535,109.182 68.622,109.182 C67.708,109.182 66.872,108.788 66.491,108.179 C66.418,108.06 66.262,108.025 66.145,108.099 C66.026,108.172 65.992,108.327 66.065,108.444 C66.542,109.21 67.521,109.685 68.622,109.685 C69.577,109.685 70.442,109.325 70.965,108.729 C71.487,109.325 72.352,109.685 73.308,109.685 C74.264,109.685 75.128,109.325 75.651,108.729 C76.175,109.325 77.039,109.685 77.994,109.685 C78.95,109.685 79.813,109.325 80.338,108.729 C80.862,109.325 81.725,109.685 82.681,109.685 C83.781,109.685 84.76,109.21 85.237,108.444 C85.318,108.325 85.281,108.172 85.164,108.097 L85.164,108.097 Z M55.256,123.216 C55.137,123.142 54.984,123.179 54.911,123.296 C54.531,123.906 53.694,124.299 52.78,124.299 C51.866,124.299 51.031,123.906 50.65,123.296 C50.648,123.294 50.646,123.293 50.645,123.291 C50.636,123.277 50.622,123.266 50.61,123.254 C50.598,123.242 50.589,123.23 50.575,123.221 C50.573,123.219 50.571,123.217 50.57,123.216 C50.559,123.209 50.547,123.209 50.535,123.203 C50.519,123.196 50.503,123.188 50.486,123.184 C50.47,123.181 50.455,123.182 50.437,123.182 C50.421,123.182 50.405,123.181 50.388,123.184 C50.37,123.188 50.355,123.196 50.337,123.203 C50.325,123.209 50.313,123.21 50.302,123.216 C50.301,123.217 50.299,123.219 50.297,123.221 C50.283,123.23 50.273,123.243 50.26,123.255 C50.248,123.268 50.236,123.278 50.226,123.293 C50.224,123.294 50.222,123.296 50.22,123.298 C49.841,123.907 49.004,124.301 48.09,124.301 C47.177,124.301 46.341,123.907 45.96,123.298 C45.958,123.296 45.957,123.294 45.955,123.293 C45.946,123.278 45.932,123.268 45.92,123.255 C45.908,123.243 45.897,123.231 45.883,123.221 C45.882,123.219 45.88,123.217 45.878,123.216 C45.868,123.209 45.855,123.209 45.843,123.203 C45.826,123.196 45.81,123.188 45.793,123.184 C45.777,123.181 45.761,123.182 45.745,123.182 C45.729,123.182 45.714,123.181 45.698,123.184 C45.681,123.188 45.665,123.196 45.649,123.203 C45.637,123.209 45.625,123.21 45.614,123.216 C45.612,123.217 45.611,123.219 45.609,123.221 C45.595,123.23 45.584,123.243 45.573,123.255 C45.56,123.268 45.548,123.278 45.537,123.293 C45.536,123.294 45.534,123.296 45.532,123.298 C45.153,123.907 44.316,124.301 43.402,124.301 C42.488,124.301 41.653,123.907 41.272,123.298 C41.27,123.296 41.268,123.294 41.268,123.294 C41.258,123.278 41.244,123.266 41.23,123.254 C41.219,123.243 41.209,123.231 41.197,123.222 C41.195,123.221 41.193,123.219 41.192,123.217 C41.179,123.21 41.165,123.209 41.153,123.203 C41.138,123.196 41.123,123.189 41.106,123.186 C41.09,123.182 41.074,123.184 41.057,123.184 C41.041,123.184 41.026,123.182 41.008,123.186 C40.992,123.189 40.977,123.196 40.961,123.203 C40.949,123.209 40.935,123.21 40.922,123.217 C40.921,123.219 40.919,123.221 40.917,123.222 C40.905,123.231 40.896,123.243 40.886,123.254 C40.872,123.266 40.858,123.278 40.847,123.294 C40.846,123.296 40.844,123.298 40.844,123.298 C40.465,123.907 39.627,124.301 38.714,124.301 C37.8,124.301 36.964,123.907 36.584,123.298 C36.51,123.179 36.355,123.144 36.238,123.217 C36.119,123.291 36.084,123.446 36.157,123.563 C36.634,124.329 37.613,124.804 38.714,124.804 C39.669,124.804 40.535,124.444 41.057,123.848 C41.58,124.444 42.444,124.804 43.4,124.804 C44.356,124.804 45.221,124.444 45.743,123.848 C46.268,124.444 47.131,124.804 48.087,124.804 C49.042,124.804 49.906,124.444 50.43,123.848 C50.954,124.444 51.817,124.804 52.773,124.804 C53.874,124.804 54.853,124.329 55.33,123.563 C55.41,123.444 55.373,123.291 55.256,123.216 L55.256,123.216 Z M83.525,122.272 C83.406,122.198 83.252,122.235 83.179,122.352 C82.8,122.962 81.963,123.355 81.049,123.355 C80.135,123.355 79.298,122.962 78.919,122.352 C78.917,122.35 78.915,122.349 78.914,122.347 C78.905,122.333 78.892,122.323 78.88,122.312 C78.868,122.3 78.858,122.286 78.844,122.277 C78.842,122.275 78.84,122.274 78.838,122.272 C78.828,122.265 78.815,122.265 78.805,122.26 C78.788,122.253 78.772,122.244 78.753,122.24 C78.737,122.237 78.721,122.239 78.706,122.239 C78.69,122.239 78.674,122.237 78.658,122.24 C78.639,122.244 78.624,122.253 78.606,122.26 C78.595,122.265 78.583,122.265 78.573,122.272 C78.571,122.274 78.57,122.275 78.568,122.277 C78.553,122.286 78.543,122.3 78.531,122.312 C78.518,122.325 78.506,122.335 78.498,122.347 C78.496,122.349 78.494,122.35 78.492,122.352 C78.113,122.962 77.276,123.355 76.362,123.355 C75.448,123.355 74.613,122.962 74.232,122.352 C74.23,122.35 74.229,122.349 74.227,122.347 C74.218,122.333 74.204,122.323 74.192,122.31 C74.18,122.298 74.169,122.284 74.155,122.275 C74.153,122.274 74.152,122.272 74.15,122.27 C74.14,122.263 74.129,122.263 74.117,122.258 C74.099,122.251 74.084,122.242 74.064,122.239 C74.049,122.235 74.035,122.237 74.019,122.237 C74.002,122.237 73.986,122.235 73.968,122.239 C73.951,122.242 73.935,122.251 73.918,122.258 C73.906,122.263 73.893,122.265 73.883,122.27 C73.881,122.272 73.879,122.274 73.877,122.275 C73.864,122.284 73.853,122.298 73.841,122.31 C73.829,122.323 73.817,122.333 73.806,122.347 C73.804,122.349 73.802,122.35 73.8,122.352 C73.422,122.962 72.586,123.355 71.671,123.355 C70.757,123.355 69.92,122.962 69.541,122.352 C69.467,122.234 69.312,122.198 69.195,122.272 C69.076,122.346 69.041,122.501 69.114,122.618 C69.591,123.383 70.57,123.858 71.671,123.858 C72.626,123.858 73.491,123.499 74.014,122.903 C74.536,123.499 75.401,123.858 76.357,123.858 C77.313,123.858 78.178,123.499 78.701,122.903 C79.224,123.499 80.088,123.858 81.044,123.858 C82.145,123.858 83.123,123.383 83.6,122.618 C83.678,122.499 83.642,122.346 83.525,122.272 L83.525,122.272 Z M48.542,104.423 C48.329,104.469 48.104,104.494 47.876,104.494 C46.962,104.494 46.124,104.101 45.745,103.491 C45.744,103.489 45.742,103.488 45.74,103.486 C45.731,103.472 45.719,103.462 45.707,103.451 C45.695,103.439 45.684,103.425 45.67,103.416 C45.668,103.414 45.667,103.413 45.665,103.411 C45.655,103.404 45.642,103.404 45.632,103.399 C45.614,103.391 45.599,103.383 45.58,103.379 C45.564,103.376 45.548,103.378 45.532,103.378 C45.516,103.378 45.501,103.376 45.485,103.379 C45.466,103.383 45.45,103.391 45.433,103.399 C45.422,103.404 45.41,103.404 45.399,103.411 C45.398,103.413 45.396,103.414 45.394,103.416 C45.38,103.425 45.37,103.439 45.358,103.451 C45.345,103.464 45.333,103.474 45.324,103.486 C45.323,103.488 45.321,103.489 45.319,103.491 C44.94,104.101 44.103,104.494 43.189,104.494 C42.275,104.494 41.44,104.101 41.059,103.491 C41.057,103.489 41.055,103.488 41.054,103.486 C41.045,103.472 41.031,103.462 41.018,103.449 C41.006,103.437 40.996,103.423 40.982,103.414 C40.98,103.413 40.979,103.411 40.977,103.409 C40.966,103.402 40.956,103.402 40.943,103.397 C40.926,103.39 40.91,103.381 40.891,103.378 C40.875,103.374 40.862,103.376 40.846,103.376 C40.828,103.376 40.813,103.374 40.795,103.378 C40.777,103.381 40.762,103.39 40.744,103.397 C40.732,103.402 40.72,103.404 40.709,103.409 C40.708,103.411 40.706,103.413 40.704,103.414 C40.69,103.423 40.68,103.437 40.667,103.449 C40.655,103.462 40.643,103.472 40.632,103.486 C40.631,103.488 40.629,103.489 40.627,103.491 C40.248,104.101 39.413,104.494 38.497,104.494 C38.281,104.494 38.069,104.472 37.866,104.43 L37.302,104.797 C37.668,104.927 38.074,104.997 38.497,104.997 C39.453,104.997 40.318,104.638 40.84,104.042 C41.363,104.638 42.228,104.997 43.183,104.997 C44.14,104.997 45.005,104.638 45.527,104.042 C46.051,104.638 46.914,104.997 47.87,104.997 C48.008,104.997 48.143,104.99 48.277,104.975 L48.542,104.423 L48.542,104.423 Z M28.251,100.188 C28.132,100.114 27.978,100.151 27.904,100.268 C27.526,100.878 26.688,101.271 25.775,101.271 C24.861,101.271 24.023,100.878 23.644,100.268 C23.643,100.267 23.641,100.265 23.639,100.263 C23.631,100.249 23.618,100.239 23.606,100.228 C23.594,100.216 23.583,100.202 23.569,100.193 C23.568,100.191 23.566,100.19 23.564,100.188 C23.554,100.181 23.541,100.181 23.531,100.176 C23.513,100.169 23.498,100.16 23.479,100.156 C23.463,100.153 23.447,100.155 23.431,100.155 C23.415,100.155 23.4,100.153 23.384,100.156 C23.365,100.16 23.349,100.169 23.332,100.176 C23.321,100.181 23.309,100.181 23.298,100.188 C23.297,100.19 23.295,100.191 23.293,100.193 C23.279,100.202 23.269,100.216 23.257,100.228 C23.244,100.241 23.232,100.251 23.223,100.263 C23.222,100.265 23.22,100.267 23.218,100.268 C22.839,100.878 22.002,101.271 21.088,101.271 C20.174,101.271 19.339,100.878 18.958,100.268 C18.956,100.267 18.954,100.265 18.953,100.263 C18.944,100.249 18.93,100.239 18.917,100.226 C18.905,100.214 18.895,100.2 18.881,100.191 C18.879,100.19 18.878,100.188 18.876,100.186 C18.865,100.179 18.855,100.179 18.842,100.174 C18.825,100.167 18.809,100.158 18.79,100.155 C18.774,100.151 18.76,100.153 18.745,100.153 C18.727,100.153 18.712,100.151 18.694,100.155 C18.676,100.158 18.661,100.167 18.643,100.174 C18.631,100.179 18.619,100.181 18.608,100.186 C18.607,100.188 18.605,100.19 18.603,100.191 C18.589,100.2 18.579,100.214 18.566,100.226 C18.554,100.239 18.542,100.249 18.531,100.263 C18.53,100.265 18.528,100.267 18.526,100.268 C18.147,100.878 17.312,101.271 16.396,101.271 C15.482,101.271 14.645,100.878 14.266,100.268 C14.193,100.15 14.037,100.114 13.92,100.188 C13.801,100.262 13.766,100.417 13.84,100.534 C14.317,101.299 15.295,101.775 16.396,101.775 C17.352,101.775 18.217,101.415 18.739,100.819 C19.262,101.415 20.127,101.775 21.083,101.775 C22.038,101.775 22.904,101.415 23.426,100.819 C23.95,101.415 24.813,101.775 25.769,101.775 C26.87,101.775 27.848,101.299 28.326,100.534 C28.404,100.415 28.367,100.262 28.251,100.188 L28.251,100.188 Z M105.532,104.302 C105.413,104.229 105.26,104.265 105.186,104.382 C104.807,104.992 103.97,105.385 103.056,105.385 C102.142,105.385 101.307,104.992 100.926,104.382 C100.924,104.38 100.923,104.379 100.921,104.377 C100.912,104.363 100.898,104.353 100.886,104.341 C100.873,104.328 100.863,104.316 100.849,104.305 C100.847,104.304 100.846,104.302 100.844,104.3 C100.833,104.293 100.821,104.293 100.809,104.288 C100.793,104.281 100.776,104.272 100.758,104.269 C100.742,104.265 100.727,104.267 100.711,104.267 C100.695,104.267 100.68,104.265 100.664,104.269 C100.646,104.272 100.631,104.281 100.613,104.288 C100.601,104.293 100.589,104.295 100.578,104.3 C100.576,104.302 100.575,104.304 100.573,104.305 C100.559,104.314 100.549,104.328 100.536,104.341 C100.524,104.353 100.512,104.363 100.501,104.377 C100.5,104.379 100.498,104.38 100.496,104.382 C100.117,104.992 99.28,105.385 98.366,105.385 C97.452,105.385 96.617,104.992 96.236,104.382 C96.234,104.38 96.232,104.379 96.231,104.377 C96.222,104.363 96.208,104.353 96.196,104.341 C96.184,104.328 96.173,104.316 96.159,104.305 C96.157,104.304 96.155,104.302 96.154,104.3 C96.143,104.293 96.131,104.293 96.119,104.288 C96.103,104.281 96.086,104.272 96.068,104.269 C96.053,104.265 96.037,104.267 96.021,104.267 C96.006,104.267 95.989,104.265 95.974,104.269 C95.956,104.272 95.941,104.281 95.923,104.288 C95.911,104.293 95.899,104.295 95.888,104.3 C95.887,104.302 95.885,104.304 95.883,104.305 C95.869,104.314 95.858,104.328 95.846,104.341 C95.834,104.353 95.822,104.363 95.811,104.377 C95.81,104.379 95.808,104.38 95.806,104.382 C95.427,104.992 94.59,105.385 93.676,105.385 C92.763,105.385 91.927,104.992 91.546,104.382 C91.544,104.38 91.543,104.379 91.541,104.377 C91.532,104.363 91.518,104.353 91.506,104.341 C91.494,104.328 91.483,104.316 91.471,104.307 C91.469,104.305 91.467,104.304 91.466,104.302 C91.455,104.295 91.443,104.293 91.431,104.29 C91.413,104.283 91.398,104.274 91.382,104.27 C91.366,104.267 91.35,104.269 91.333,104.269 C91.317,104.269 91.301,104.267 91.284,104.27 C91.267,104.274 91.251,104.283 91.235,104.29 C91.223,104.295 91.211,104.297 91.2,104.302 C91.198,104.304 91.197,104.305 91.195,104.307 C91.181,104.316 91.17,104.33 91.158,104.342 C91.146,104.354 91.134,104.365 91.123,104.379 C91.122,104.38 91.12,104.382 91.118,104.384 C90.739,104.994 89.904,105.387 88.988,105.387 C88.074,105.387 87.237,104.994 86.858,104.384 C86.856,104.382 86.854,104.38 86.853,104.379 C86.844,104.365 86.83,104.354 86.817,104.342 C86.805,104.33 86.795,104.318 86.781,104.307 L86.776,104.302 C86.765,104.295 86.753,104.295 86.741,104.29 C86.723,104.283 86.707,104.274 86.69,104.27 C86.674,104.267 86.659,104.269 86.643,104.269 C86.627,104.269 86.612,104.267 86.596,104.27 C86.578,104.274 86.561,104.283 86.545,104.29 C86.535,104.295 86.522,104.297 86.51,104.302 C86.508,104.304 86.506,104.305 86.505,104.307 C86.491,104.316 86.481,104.33 86.468,104.342 C86.456,104.354 86.443,104.365 86.435,104.379 C86.433,104.38 86.431,104.382 86.43,104.384 C86.051,104.994 85.213,105.387 84.3,105.387 C83.386,105.387 82.55,104.994 82.17,104.384 C82.096,104.265 81.941,104.23 81.823,104.304 C81.705,104.377 81.67,104.533 81.743,104.65 C82.22,105.415 83.199,105.89 84.3,105.89 C85.255,105.89 86.12,105.531 86.643,104.935 C87.165,105.531 88.03,105.89 88.986,105.89 C89.942,105.89 90.807,105.531 91.329,104.935 C91.852,105.531 92.717,105.89 93.673,105.89 C94.628,105.89 95.493,105.531 96.016,104.935 C96.54,105.531 97.403,105.89 98.359,105.89 C99.315,105.89 100.178,105.531 100.703,104.935 C101.226,105.531 102.09,105.89 103.046,105.89 C104.147,105.89 105.125,105.415 105.602,104.65 C105.688,104.531 105.651,104.376 105.532,104.302 L105.532,104.302 Z M93.644,94.754 C93.526,94.681 93.372,94.717 93.298,94.834 C92.919,95.444 92.082,95.837 91.168,95.837 C90.254,95.837 89.419,95.444 89.038,94.834 C89.036,94.832 89.035,94.831 89.033,94.829 C89.024,94.815 89.01,94.805 88.998,94.793 C88.985,94.78 88.975,94.768 88.961,94.757 C88.96,94.756 88.958,94.754 88.956,94.752 C88.945,94.745 88.933,94.745 88.921,94.74 C88.906,94.733 88.888,94.724 88.87,94.721 C88.854,94.717 88.839,94.719 88.823,94.719 C88.807,94.719 88.792,94.717 88.776,94.721 C88.758,94.724 88.743,94.733 88.725,94.74 C88.713,94.745 88.701,94.747 88.69,94.752 C88.688,94.754 88.687,94.756 88.685,94.757 C88.671,94.766 88.661,94.78 88.648,94.793 C88.636,94.805 88.624,94.815 88.613,94.829 C88.612,94.831 88.61,94.832 88.608,94.834 C88.229,95.444 87.392,95.837 86.478,95.837 C85.564,95.837 84.729,95.444 84.348,94.834 C84.346,94.832 84.344,94.831 84.343,94.829 C84.334,94.815 84.32,94.805 84.308,94.793 C84.296,94.78 84.285,94.768 84.271,94.757 C84.269,94.756 84.268,94.754 84.266,94.752 C84.255,94.745 84.243,94.745 84.231,94.74 C84.215,94.733 84.198,94.724 84.18,94.721 C84.165,94.717 84.149,94.719 84.133,94.719 C84.118,94.719 84.102,94.717 84.086,94.721 C84.068,94.724 84.053,94.733 84.035,94.74 C84.023,94.745 84.011,94.747 84,94.752 C83.999,94.754 83.997,94.756 83.995,94.757 C83.981,94.766 83.971,94.78 83.958,94.793 C83.946,94.805 83.934,94.815 83.924,94.829 C83.922,94.831 83.92,94.832 83.918,94.834 C83.539,95.444 82.702,95.837 81.788,95.837 C80.874,95.837 80.039,95.444 79.658,94.834 C79.656,94.832 79.655,94.831 79.653,94.829 C79.644,94.815 79.63,94.805 79.618,94.793 C79.606,94.78 79.595,94.768 79.583,94.759 C79.581,94.757 79.579,94.756 79.578,94.754 C79.567,94.747 79.555,94.745 79.543,94.742 C79.525,94.735 79.51,94.726 79.494,94.722 C79.478,94.719 79.462,94.721 79.445,94.721 C79.429,94.721 79.413,94.719 79.396,94.722 C79.379,94.726 79.363,94.735 79.347,94.742 C79.335,94.747 79.323,94.749 79.312,94.754 L79.307,94.759 C79.293,94.768 79.282,94.782 79.27,94.794 C79.258,94.806 79.246,94.817 79.235,94.831 C79.234,94.832 79.232,94.834 79.23,94.836 C78.851,95.446 78.016,95.839 77.1,95.839 C76.186,95.839 75.349,95.446 74.97,94.836 C74.968,94.834 74.966,94.832 74.965,94.831 C74.956,94.817 74.942,94.806 74.929,94.794 C74.917,94.782 74.907,94.77 74.893,94.759 L74.888,94.754 C74.877,94.747 74.865,94.747 74.853,94.742 C74.836,94.735 74.819,94.726 74.802,94.722 C74.786,94.719 74.771,94.721 74.755,94.721 C74.739,94.721 74.724,94.719 74.708,94.722 C74.69,94.726 74.673,94.735 74.657,94.742 C74.647,94.747 74.634,94.749 74.622,94.754 L74.617,94.759 C74.603,94.768 74.593,94.782 74.58,94.794 C74.568,94.806 74.555,94.817 74.547,94.831 C74.545,94.832 74.543,94.834 74.542,94.836 C74.163,95.446 73.325,95.839 72.412,95.839 C71.498,95.839 70.662,95.446 70.282,94.836 C70.208,94.717 70.053,94.682 69.935,94.756 C69.817,94.829 69.782,94.985 69.855,95.102 C70.332,95.867 71.311,96.342 72.412,96.342 C73.367,96.342 74.232,95.983 74.755,95.387 C75.277,95.983 76.142,96.342 77.098,96.342 C78.054,96.342 78.919,95.983 79.441,95.387 C79.964,95.983 80.829,96.342 81.785,96.342 C82.74,96.342 83.606,95.983 84.128,95.387 C84.652,95.983 85.515,96.342 86.471,96.342 C87.427,96.342 88.29,95.983 88.815,95.387 C89.338,95.983 90.202,96.342 91.158,96.342 C92.259,96.342 93.237,95.867 93.714,95.102 C93.8,94.983 93.763,94.827 93.644,94.754 L93.644,94.754 Z" id="Fill-14" fill="#333333"></path>
                        <path d="M167.376,78.371 C167.258,78.297 167.104,78.334 167.03,78.451 C166.651,79.061 165.814,79.454 164.9,79.454 C163.986,79.454 163.151,79.061 162.77,78.451 C162.769,78.449 162.767,78.447 162.765,78.446 C162.756,78.431 162.742,78.421 162.73,78.409 C162.718,78.397 162.707,78.384 162.693,78.374 C162.692,78.372 162.69,78.371 162.688,78.369 C162.677,78.362 162.665,78.362 162.653,78.356 C162.638,78.35 162.62,78.341 162.602,78.337 C162.587,78.334 162.571,78.335 162.555,78.335 C162.54,78.335 162.524,78.334 162.508,78.337 C162.49,78.341 162.475,78.35 162.457,78.356 C162.445,78.362 162.433,78.363 162.422,78.369 C162.421,78.371 162.419,78.372 162.417,78.374 C162.403,78.383 162.393,78.397 162.38,78.409 C162.368,78.421 162.356,78.431 162.346,78.446 C162.344,78.447 162.342,78.449 162.341,78.451 C161.961,79.061 161.124,79.454 160.21,79.454 C159.296,79.454 158.461,79.061 158.08,78.451 C158.078,78.449 158.077,78.447 158.075,78.446 C158.066,78.431 158.052,78.421 158.04,78.409 C158.028,78.397 158.017,78.384 158.003,78.374 C158.001,78.372 158,78.371 157.998,78.369 C157.988,78.362 157.976,78.362 157.963,78.356 C157.947,78.35 157.93,78.341 157.912,78.337 C157.897,78.334 157.881,78.335 157.865,78.335 C157.85,78.335 157.834,78.334 157.818,78.337 C157.801,78.341 157.785,78.35 157.768,78.356 C157.755,78.362 157.743,78.363 157.733,78.369 C157.731,78.371 157.729,78.372 157.727,78.374 C157.713,78.383 157.703,78.397 157.691,78.409 C157.679,78.421 157.666,78.431 157.656,78.446 C157.654,78.447 157.652,78.449 157.65,78.451 C157.271,79.061 156.434,79.454 155.52,79.454 C154.607,79.454 153.771,79.061 153.39,78.451 C153.389,78.449 153.387,78.447 153.385,78.446 C153.377,78.431 153.362,78.421 153.35,78.409 C153.338,78.397 153.327,78.384 153.315,78.375 C153.313,78.374 153.312,78.372 153.31,78.371 C153.3,78.363 153.287,78.362 153.275,78.358 C153.258,78.351 153.242,78.342 153.226,78.339 C153.21,78.335 153.194,78.337 153.177,78.337 C153.161,78.337 153.146,78.335 153.128,78.339 C153.111,78.342 153.095,78.351 153.079,78.358 C153.067,78.363 153.055,78.365 153.044,78.371 C153.042,78.372 153.041,78.374 153.039,78.375 C153.025,78.384 153.015,78.398 153.003,78.41 C152.99,78.423 152.978,78.433 152.967,78.447 C152.966,78.449 152.964,78.451 152.962,78.452 C152.583,79.062 151.748,79.455 150.832,79.455 C149.918,79.455 149.081,79.062 148.702,78.452 C148.7,78.451 148.698,78.449 148.697,78.447 C148.688,78.433 148.674,78.423 148.662,78.41 C148.65,78.398 148.639,78.386 148.625,78.375 C148.623,78.374 148.622,78.372 148.62,78.371 C148.609,78.363 148.597,78.363 148.585,78.358 C148.568,78.351 148.552,78.342 148.534,78.339 C148.518,78.335 148.503,78.337 148.487,78.337 C148.471,78.337 148.456,78.335 148.44,78.339 C148.422,78.342 148.405,78.351 148.389,78.358 C148.379,78.363 148.366,78.365 148.354,78.371 C148.352,78.372 148.351,78.374 148.349,78.375 C148.335,78.384 148.325,78.398 148.312,78.41 C148.3,78.423 148.288,78.433 148.279,78.447 C148.277,78.449 148.276,78.451 148.274,78.452 C147.895,79.062 147.057,79.455 146.144,79.455 C145.23,79.455 144.394,79.062 144.014,78.452 C143.94,78.334 143.785,78.299 143.668,78.372 C143.549,78.446 143.514,78.601 143.588,78.718 C144.064,79.484 145.043,79.959 146.144,79.959 C147.1,79.959 147.965,79.599 148.487,79.003 C149.01,79.599 149.874,79.959 150.83,79.959 C151.786,79.959 152.651,79.599 153.173,79.003 C153.696,79.599 154.561,79.959 155.517,79.959 C156.472,79.959 157.338,79.599 157.86,79.003 C158.384,79.599 159.247,79.959 160.203,79.959 C161.159,79.959 162.022,79.599 162.547,79.003 C163.071,79.599 163.934,79.959 164.89,79.959 C165.991,79.959 166.969,79.484 167.446,78.718 C167.532,78.599 167.495,78.444 167.376,78.371" id="Fill-15" fill="#333333"></path>
                        <path d="M132.178,85.449 C132.059,85.375 131.905,85.412 131.832,85.529 C131.452,86.139 130.615,86.532 129.702,86.532 C128.788,86.532 127.953,86.139 127.572,85.529 C127.57,85.527 127.568,85.525 127.566,85.524 C127.557,85.509 127.544,85.499 127.532,85.487 C127.519,85.475 127.509,85.462 127.495,85.452 C127.493,85.45 127.491,85.449 127.49,85.447 C127.479,85.44 127.467,85.44 127.455,85.434 C127.439,85.428 127.421,85.419 127.404,85.415 C127.388,85.412 127.372,85.413 127.357,85.413 C127.341,85.413 127.325,85.412 127.31,85.415 C127.292,85.419 127.276,85.428 127.259,85.434 C127.247,85.44 127.235,85.441 127.224,85.447 C127.222,85.449 127.22,85.45 127.219,85.452 C127.205,85.461 127.194,85.475 127.182,85.487 C127.17,85.499 127.158,85.509 127.147,85.524 C127.145,85.525 127.143,85.527 127.142,85.529 C126.763,86.139 125.926,86.532 125.012,86.532 C124.098,86.532 123.263,86.139 122.882,85.529 C122.88,85.527 122.878,85.525 122.876,85.524 C122.868,85.509 122.854,85.499 122.841,85.487 C122.829,85.475 122.818,85.462 122.805,85.452 C122.803,85.45 122.801,85.449 122.8,85.447 C122.789,85.44 122.777,85.44 122.764,85.434 C122.749,85.428 122.731,85.419 122.714,85.415 C122.698,85.412 122.682,85.413 122.667,85.413 C122.651,85.413 122.635,85.412 122.619,85.415 C122.602,85.419 122.586,85.428 122.569,85.434 C122.557,85.44 122.544,85.441 122.534,85.447 C122.532,85.449 122.53,85.45 122.529,85.452 C122.515,85.461 122.504,85.475 122.492,85.487 C122.48,85.499 122.467,85.509 122.457,85.524 C122.455,85.525 122.453,85.527 122.452,85.529 C122.073,86.139 121.235,86.532 120.321,86.532 C119.408,86.532 118.572,86.139 118.192,85.529 C118.19,85.527 118.188,85.525 118.186,85.524 C118.178,85.509 118.164,85.499 118.151,85.487 C118.139,85.475 118.129,85.462 118.117,85.454 C118.115,85.452 118.113,85.45 118.111,85.449 C118.101,85.441 118.088,85.44 118.076,85.436 C118.059,85.429 118.043,85.42 118.028,85.417 C118.011,85.413 117.996,85.415 117.978,85.415 C117.963,85.415 117.947,85.413 117.93,85.417 C117.912,85.42 117.896,85.429 117.88,85.436 C117.868,85.441 117.856,85.443 117.845,85.449 C117.844,85.45 117.842,85.452 117.841,85.454 C117.826,85.462 117.816,85.476 117.804,85.488 C117.791,85.501 117.779,85.511 117.769,85.525 C117.767,85.527 117.765,85.529 117.764,85.53 C117.384,86.14 116.549,86.533 115.633,86.533 C114.72,86.533 113.883,86.14 113.503,85.53 C113.502,85.529 113.5,85.527 113.498,85.525 C113.489,85.511 113.476,85.501 113.463,85.488 C113.451,85.476 113.441,85.464 113.426,85.454 C113.424,85.452 113.423,85.45 113.421,85.449 C113.411,85.441 113.399,85.441 113.386,85.436 C113.369,85.429 113.353,85.42 113.335,85.417 C113.32,85.413 113.304,85.415 113.289,85.415 C113.273,85.415 113.257,85.413 113.241,85.417 C113.224,85.42 113.206,85.429 113.191,85.436 C113.18,85.441 113.168,85.443 113.156,85.449 C113.154,85.45 113.152,85.452 113.15,85.454 C113.136,85.462 113.126,85.476 113.114,85.488 C113.102,85.501 113.089,85.511 113.08,85.525 C113.079,85.527 113.077,85.529 113.075,85.53 C112.696,86.14 111.859,86.533 110.945,86.533 C110.031,86.533 109.196,86.14 108.815,85.53 C108.742,85.412 108.586,85.377 108.469,85.45 C108.35,85.524 108.316,85.679 108.389,85.796 C108.866,86.562 109.845,87.037 110.945,87.037 C111.901,87.037 112.766,86.677 113.289,86.081 C113.811,86.677 114.676,87.037 115.632,87.037 C116.588,87.037 117.452,86.677 117.975,86.081 C118.497,86.677 119.362,87.037 120.318,87.037 C121.274,87.037 122.139,86.677 122.661,86.081 C123.186,86.677 124.049,87.037 125.005,87.037 C125.961,87.037 126.824,86.677 127.348,86.081 C127.872,86.677 128.735,87.037 129.691,87.037 C130.792,87.037 131.77,86.562 132.248,85.796 C132.333,85.677 132.297,85.522 132.178,85.449" id="Fill-16" fill="#333333"></path>
                        <path d="M101.756,80.793 L103.704,80.115 C103.93,80.036 104.179,80.157 104.257,80.383 L104.265,80.405 C104.344,80.631 104.223,80.88 103.998,80.959 L102.049,81.637 C101.823,81.716 101.574,81.595 101.496,81.369 L101.488,81.347 C101.409,81.121 101.53,80.872 101.756,80.793" id="Fill-17" fill="#333333"></path>
                        <path d="M92.821,53.683 L102.614,81.819 L103.584,81.481 L93.791,53.345 L92.821,53.683" id="Fill-18" fill="#333333"></path>
                        <path d="M89.404,42.29 C87.757,42.858 86.942,44.566 87.601,46.478 C89.081,50.713 91.507,50.14 92.82,53.641 C92.861,53.75 92.994,53.802 93.12,53.758 L93.365,53.673 L93.617,53.585 C93.742,53.542 93.814,53.418 93.779,53.307 C92.635,49.75 94.889,48.691 93.42,44.453 C92.75,42.545 91.044,41.714 89.404,42.29 L89.404,42.29 Z M90.806,46.283 C89.678,46.675 88.371,46.065 88.059,45.17 C87.733,44.233 88.835,43.163 89.625,42.888 C90.414,42.613 91.943,42.768 92.268,43.705 C92.58,44.6 91.934,45.89 90.806,46.283 L90.806,46.283 Z" id="Fill-19" fill="#333333"></path>
                        <path d="M107.163,62.164 C105.403,62.226 103.928,60.852 103.859,59.093 C103.797,57.333 105.177,55.852 106.925,55.795 C108.691,55.727 110.166,57.107 110.229,58.861 C110.297,60.62 108.922,62.096 107.163,62.164" id="Fill-20" fill="#333333"></path>
                        <path d="M70.494,99.891 C75.211,100.393 90.929,101.08 106.498,101.285 C106.618,101.052 106.8,100.848 107.05,100.713 C107.203,100.627 107.395,100.559 107.667,100.463 C108.821,100.055 109.448,99.699 109.539,99.399 C109.777,98.591 109.177,94.398 108.062,91.977 C106.966,89.59 106.071,87.768 106.065,87.745 L106.003,87.621 L105.347,84.43 L105.337,84.374 L105.331,84.317 C105.296,83.978 104.516,76.064 104.465,74.814 C104.453,74.53 104.346,74.339 104.245,74.22 C104.165,74.225 104.086,74.225 104.001,74.225 C101.88,74.225 99.176,72.42 98.372,71.85 C96.766,71.465 95.877,70.084 95.968,68.948 C96.042,68.003 96.76,67.341 97.71,67.341 C98.411,67.341 99.176,67.68 100.058,68.381 C100.963,69.1 101.857,69.468 102.717,69.468 C103.112,69.468 103.424,69.389 103.639,69.315 C103.758,68.778 103.961,67.641 104.142,65.633 C104.317,63.607 105.647,62.396 107.7,62.396 C108.696,62.396 109.534,62.674 109.623,62.707 L109.907,62.804 L110.1,63.03 C110.121,63.053 112.3,65.621 114.54,68.07 C117.113,70.888 116.119,73.1 115.881,73.53 L112.916,79.069 L113.061,79.169 C112.976,79.432 112.909,79.701 112.86,79.973 L112.629,79.814 L112.644,83.334 C112.475,88.204 113.42,89.783 113.431,89.793 L113.46,89.834 L113.465,89.845 C115.089,92.611 115.416,96.191 115.677,99.066 C115.733,99.699 115.79,100.293 115.852,100.82 C115.878,101.032 115.896,101.218 115.914,101.404 C133.865,101.63 161.175,101.981 162.687,102.052 C168.361,102.319 173.718,103.767 162.286,105.09 C150.852,106.408 102.863,106.686 94.718,106.052 C86.567,105.413 71.53,103.506 68.633,101.809 C65.731,100.111 65.708,99.387 70.494,99.891" id="Fill-21" fill="#333333"></path>
                    </g>
                </g>
            </g>
        </g>
    </g>
</svg>