<?xml version="1.0" encoding="UTF-8" standalone="no"?>
<svg width="194px" height="198px" viewBox="0 0 194 198" version="1.1" xmlns="http://www.w3.org/2000/svg" xmlns:xlink="http://www.w3.org/1999/xlink" xmlns:sketch="http://www.bohemiancoding.com/sketch/ns">
    <!-- Generator: Sketch 3.3.2 (12043) - http://www.bohemiancoding.com/sketch -->
    <title>Imported Layers</title>
    <desc>Created with Sketch.</desc>
    <defs></defs>
    <g id="Landing" stroke="none" stroke-width="1" fill="none" fill-rule="evenodd" sketch:type="MSPage">
        <g id="Desktop-HD" sketch:type="MSArtboardGroup" transform="translate(-1394.000000, -1566.000000)">
            <g id="How-it-works" sketch:type="MSLayerGroup" transform="translate(223.000000, 1180.000000)">
                <g id="4col" transform="translate(1099.000000, 274.000000)" sketch:type="MSShapeGroup">
                    <g id="Imported-Layers" transform="translate(74.000000, 114.000000)">
                        <path d="M77.269,142.300489 L78.784,147.263378 C78.861,147.515867 78.722,147.785733 78.476,147.864444 L77.62,148.1384 C77.373,148.216089 77.108,148.075022 77.031,147.822533 L75.516,142.859644 C75.439,142.607156 75.578,142.336267 75.825,142.257556 L76.681,141.984622 C76.928,141.905911 77.192,142.048 77.269,142.300489" id="Fill-1" fill="#333333"></path>
                        <path d="M134.576,125.643378 L76.274,144.236578 L76.915,146.3352 L135.216,127.740978 L134.576,125.643378" id="Fill-2" fill="#333333"></path>
                        <path d="M157.48,119.486533 C156.425,115.990533 152.971,114.1628 149.001,115.415022 C140.206,118.233289 141.221,123.364844 133.942,125.882578 C133.716,125.961289 133.6,126.237289 133.682,126.504089 L134.003,127.558 C134.085,127.825822 134.334,127.985289 134.564,127.917822 C141.946,125.759911 143.969,130.564356 152.772,127.7696 C156.734,126.492844 158.555,122.969244 157.48,119.486533 L157.48,119.486533 Z M149.188,122.1576 C148.457,119.762533 149.797,117.0608 151.658,116.466889 C153.602,115.8464 155.727,118.232267 156.239,119.908711 C156.751,121.586178 156.33,124.782667 154.385,125.403156 C152.524,125.997067 149.919,124.552667 149.188,122.1576 L149.188,122.1576 Z" id="Fill-3" fill="#333333"></path>
                        <path d="M63.974,124.322667 L73.565,130.248489 C73.987,130.468267 74.452,130.607289 74.939,130.614444 L82.863,130.211689 L74.353,141.085067 C73.2,142.686889 72.799,144.781422 73.307,146.755333 L77.91,157.065467 L69.764,166.484222 C68.868,167.580044 68.561,169.1328 69.119,170.545511 C69.915,172.577689 72.161,173.551867 74.159,172.7392 C74.782,172.491822 75.311,172.089067 75.698,171.5984 L85.661,160.059556 C86.343,159.166133 86.629,157.981378 86.378,156.808889 L83.528,150.386267 L95.713,154.328978 L100.079,168.605333 C100.114,168.693244 100.136,168.788311 100.171,168.869067 C100.966,170.903289 103.222,171.890756 105.218,171.079111 C107.079,170.304267 108.045,168.225067 107.488,166.263422 L102.548,149.952844 C102.52,149.887422 102.506,149.807689 102.476,149.741244 C102.033,148.6444 101.181,147.8532 100.171,147.495422 L88.912,143.888 L98.346,132.217289 L114.244,137.616667 C114.968,137.887556 115.799,137.8804 116.535,137.535911 C118.038,136.820356 118.698,135.013067 118.003,133.481778 C117.646,132.655822 116.951,132.0844 116.163,131.829867 L94.223,124.410578 C94.331,124.3656 94.444,124.322667 94.553,124.277689 C97.703,122.8292 99.092,119.044933 97.673,115.826978 C96.257,112.606978 92.563,111.164622 89.412,112.614133 C86.249,114.069778 84.86,117.854044 86.284,121.064844 C86.821,122.2956 87.695,123.259556 88.747,123.911733 L76.528,124.913511 L67.137,119.118533 C66.427,118.702489 65.577,118.599244 64.74,118.855822 C63.178,119.367956 62.304,121.094489 62.814,122.703467 C63.021,123.400622 63.444,123.949556 63.974,124.322667" id="Fill-4" fill="#333333"></path>
                        <path d="M81.764,89.4015111 L79.532,89.4015111 L79.532,47.5496889 C79.532,45.4244889 78.026,44.9297333 77.564,44.8305778 L31.47,44.8305778 C30.927,44.8305778 30.521,44.9839111 30.235,45.2905778 C29.659,45.9151556 29.584,47.0856 29.606,47.4852889 L29.606,89.4056 L27.374,89.4056 L27.374,47.5496889 C27.367,47.3748889 27.27,45.1852889 28.605,43.7316889 C29.316,42.9568444 30.309,42.5459111 31.47,42.5459111 L77.836,42.5571556 C79.193,42.7697778 81.761,44.0823111 81.761,47.5456 L81.761,89.4015111 L81.764,89.4015111" id="Fill-5" fill="#333333"></path>
                        <path d="M36.395,77.4517333 L73.339,77.4517333 L73.339,54.5621333 L36.395,54.5621333 L36.395,77.4517333 Z M34.163,52.2795111 L75.571,52.2795111 L75.571,79.7323111 L34.163,79.7323111 L34.163,52.2795111 Z" id="Fill-6" fill="#333333"></path>
                        <path d="M30.622,44.3368444 L36.551,52.7548444 L34.74,54.0898667 L28.81,45.6718667 L30.622,44.3368444" id="Fill-7" fill="#333333"></path>
                        <path d="M79.484,44.3368444 L81.295,45.6718667 L75.366,54.0898667 L73.555,52.7548444 L79.484,44.3368444" id="Fill-8" fill="#333333"></path>
                        <path d="M74.596,62.3330667 L35.119,62.3218222 L28.334,61.3067556 L28.654,59.0517333 L35.361,60.0514667 L74.313,60.0514667 L80.771,58.3678667 L81.325,60.5768889 L74.596,62.3330667" id="Fill-9" fill="#333333"></path>
                        <path d="M28.903,73.1808889 L28.085,71.0597778 L35.07,68.2496889 L74.674,68.2496889 L81.466,71.0638667 L80.629,73.1768 L74.239,70.5312889 L35.495,70.5312889 L28.903,73.1808889" id="Fill-10" fill="#333333"></path>
                        <path d="M29.417,89.5548444 L27.565,88.2801333 L34.687,77.4517333 L75.072,77.4517333 L81.593,88.1400889 L79.7,89.3493778 L73.837,79.7333333 L35.874,79.7333333 L29.417,89.5548444" id="Fill-11" fill="#333333"></path>
                        <path d="M42.61,78.5925333 L40.379,78.5925333 L40.379,53.6268 L36.937,44.0823111 L39.032,43.2941778 L42.61,53.2158667 L42.61,78.5925333" id="Fill-12" fill="#333333"></path>
                        <path d="M48.759,78.5925333 L46.528,78.5925333 L46.528,53.4847111 L45.456,43.8155111 L47.677,43.5609778 L48.759,53.4213333 L48.759,78.5925333" id="Fill-13" fill="#333333"></path>
                        <path d="M53.453,43.6908 L55.685,43.6908 L55.685,78.5966222 L53.453,78.5966222 L53.453,43.6908 Z" id="Fill-14" fill="#333333"></path>
                        <path d="M62.035,78.5925333 L59.803,78.5925333 L59.829,53.1841778 L61.856,43.4505778 L64.039,43.9259111 L62.035,53.5429778 L62.035,78.5925333" id="Fill-15" fill="#333333"></path>
                        <path d="M68.946,78.5925333 L66.714,78.5925333 L66.714,53.2036 L70.572,43.2686222 L72.647,44.1078667 L68.946,53.6411111 L68.946,78.5925333" id="Fill-16" fill="#333333"></path>
                        <path d="M38.747,175.356089 C63.9,176.255644 104.227,176.329244 112.69,175.654578 C123.691,174.774444 143.982,172.143244 147.891,169.801333 C151.807,167.460444 151.839,166.461733 145.38,167.156844 C138.913,167.860133 117.119,168.827156 95.782,169.092933 C80.254,169.291244 48.999,169.692978 32.193,169.941378" id="Fill-17" fill="#333333"></path>
                        <path d="M32.193,169.941378 C12.461,152.146533 0,126.123822 0,97.1111111 C0,43.4781778 42.533,0 95,0 C147.467,0 190,43.4781778 190,97.1111111 C190,150.744044 147.467,194.222222 95,194.222222 C73.943,194.222222 54.496,187.207733 38.747,175.356089 C36.481,173.651022 34.299,171.840667 32.193,169.941378 L32.193,169.941378 Z" id="Stroke-18" stroke="#333333" stroke-width="3"></path>
                        <path d="M123.788,101.676267 C123.582,101.546444 123.317,101.611867 123.19,101.817333 C122.536,102.894756 121.091,103.588844 119.513,103.588844 C117.935,103.588844 116.493,102.894756 115.835,101.817333 C115.832,101.814267 115.829,101.812222 115.826,101.809156 C115.811,101.7836 115.787,101.7652 115.765,101.743733 C115.744,101.722267 115.729,101.7008 115.705,101.685467 C115.702,101.681378 115.699,101.679333 115.696,101.676267 C115.678,101.664 115.657,101.664 115.636,101.653778 C115.609,101.642533 115.582,101.626178 115.551,101.620044 C115.524,101.614933 115.497,101.616978 115.467,101.616978 C115.439,101.616978 115.412,101.614933 115.382,101.620044 C115.352,101.626178 115.325,101.642533 115.295,101.653778 C115.274,101.664 115.253,101.667067 115.235,101.676267 C115.232,101.679333 115.229,101.681378 115.226,101.685467 C115.202,101.7008 115.183,101.725333 115.162,101.7468 C115.141,101.768267 115.12,101.786667 115.102,101.812222 C115.099,101.814267 115.096,101.817333 115.093,101.8204 C114.438,102.8968 112.993,103.590889 111.415,103.590889 C109.838,103.590889 108.395,102.8968 107.738,101.8204 C107.735,101.817333 107.732,101.814267 107.729,101.812222 C107.714,101.786667 107.689,101.768267 107.668,101.7468 C107.647,101.725333 107.629,101.703867 107.605,101.685467 C107.602,101.681378 107.599,101.679333 107.596,101.676267 C107.578,101.664 107.556,101.664 107.535,101.653778 C107.505,101.642533 107.478,101.626178 107.448,101.620044 C107.421,101.614933 107.393,101.616978 107.366,101.616978 C107.339,101.616978 107.312,101.614933 107.285,101.620044 C107.255,101.626178 107.228,101.642533 107.2,101.653778 C107.179,101.664 107.159,101.667067 107.14,101.676267 C107.137,101.679333 107.135,101.681378 107.132,101.685467 C107.107,101.7008 107.089,101.725333 107.068,101.7468 C107.047,101.768267 107.026,101.786667 107.007,101.812222 C107.005,101.814267 107.002,101.817333 106.999,101.8204 C106.344,102.8968 104.899,103.590889 103.321,103.590889 C101.743,103.590889 100.301,102.8968 99.643,101.8204 C99.64,101.817333 99.637,101.814267 99.637,101.814267 C99.619,101.786667 99.595,101.7652 99.571,101.743733 C99.553,101.725333 99.535,101.703867 99.513,101.688533 C99.51,101.685467 99.507,101.681378 99.505,101.679333 C99.483,101.667067 99.459,101.664 99.438,101.653778 C99.411,101.642533 99.387,101.630267 99.356,101.623111 C99.329,101.616978 99.302,101.620044 99.272,101.620044 C99.245,101.620044 99.218,101.616978 99.187,101.623111 C99.16,101.630267 99.133,101.642533 99.106,101.653778 C99.085,101.664 99.061,101.667067 99.04,101.679333 C99.037,101.681378 99.034,101.685467 99.031,101.688533 C99.01,101.703867 98.994,101.725333 98.977,101.743733 C98.952,101.7652 98.928,101.786667 98.91,101.814267 C98.907,101.817333 98.904,101.8204 98.904,101.8204 C98.25,102.8968 96.804,103.590889 95.227,103.590889 C93.649,103.590889 92.206,102.8968 91.549,101.8204 C91.422,101.611867 91.154,101.549511 90.951,101.679333 C90.747,101.809156 90.686,102.083111 90.813,102.2896 C91.636,103.640978 93.326,104.4792 95.227,104.4792 C96.876,104.4792 98.37,103.8444 99.272,102.792533 C100.174,103.8444 101.667,104.4792 103.318,104.4792 C104.968,104.4792 106.461,103.8444 107.363,102.792533 C108.268,103.8444 109.759,104.4792 111.409,104.4792 C113.059,104.4792 114.55,103.8444 115.455,102.792533 C116.36,103.8444 117.85,104.4792 119.5,104.4792 C121.401,104.4792 123.091,103.640978 123.914,102.2896 C124.053,102.080044 123.99,101.809156 123.788,101.676267 L123.788,101.676267 Z M72.291,149.2976 C72.086,149.167778 71.821,149.232178 71.694,149.438667 C71.04,150.515067 69.594,151.209156 68.017,151.209156 C66.439,151.209156 64.997,150.515067 64.339,149.438667 C64.336,149.4356 64.333,149.432533 64.329,149.429467 C64.315,149.404933 64.291,149.386533 64.269,149.365067 C64.248,149.342578 64.233,149.322133 64.209,149.305778 C64.206,149.302711 64.203,149.300667 64.2,149.2976 C64.182,149.284311 64.161,149.284311 64.14,149.275111 C64.112,149.262844 64.085,149.247511 64.055,149.241378 C64.028,149.235244 64.001,149.238311 63.971,149.238311 C63.943,149.238311 63.916,149.235244 63.886,149.241378 C63.856,149.247511 63.829,149.262844 63.799,149.275111 C63.778,149.284311 63.756,149.287378 63.739,149.2976 C63.735,149.300667 63.732,149.302711 63.729,149.305778 C63.705,149.322133 63.687,149.345644 63.666,149.367111 C63.645,149.3896 63.624,149.408 63.606,149.432533 C63.603,149.4356 63.6,149.438667 63.596,149.441733 C62.942,150.518133 61.497,151.2112 59.919,151.2112 C58.342,151.2112 56.899,150.518133 56.242,149.441733 C56.238,149.438667 56.236,149.4356 56.232,149.432533 C56.218,149.408 56.193,149.3896 56.172,149.367111 C56.151,149.345644 56.133,149.324178 56.109,149.305778 C56.106,149.302711 56.103,149.300667 56.099,149.2976 C56.082,149.284311 56.06,149.284311 56.039,149.275111 C56.009,149.262844 55.982,149.247511 55.952,149.241378 C55.925,149.235244 55.897,149.238311 55.87,149.238311 C55.843,149.238311 55.816,149.235244 55.789,149.241378 C55.759,149.247511 55.732,149.262844 55.704,149.275111 C55.683,149.284311 55.662,149.287378 55.644,149.2976 C55.641,149.300667 55.638,149.302711 55.635,149.305778 C55.611,149.322133 55.593,149.345644 55.572,149.367111 C55.55,149.3896 55.529,149.408 55.511,149.432533 C55.509,149.4356 55.506,149.438667 55.502,149.441733 C54.848,150.518133 53.403,151.2112 51.825,151.2112 C50.247,151.2112 48.805,150.518133 48.147,149.441733 C48.144,149.438667 48.141,149.4356 48.141,149.4356 C48.123,149.408 48.099,149.386533 48.075,149.365067 C48.056,149.345644 48.039,149.324178 48.017,149.308844 L48.009,149.300667 C47.987,149.287378 47.963,149.284311 47.942,149.275111 C47.915,149.262844 47.89,149.250578 47.86,149.244444 C47.833,149.238311 47.806,149.241378 47.776,149.241378 C47.749,149.241378 47.722,149.238311 47.691,149.244444 C47.664,149.250578 47.637,149.262844 47.61,149.275111 C47.589,149.284311 47.564,149.287378 47.544,149.300667 C47.541,149.302711 47.537,149.305778 47.534,149.308844 C47.514,149.324178 47.498,149.345644 47.48,149.365067 C47.456,149.386533 47.432,149.408 47.414,149.4356 C47.411,149.438667 47.408,149.441733 47.408,149.441733 C46.754,150.518133 45.308,151.2112 43.731,151.2112 C42.153,151.2112 40.71,150.518133 40.053,149.441733 C39.926,149.232178 39.657,149.169822 39.455,149.300667 C39.25,149.429467 39.19,149.703422 39.317,149.910933 C40.14,151.261289 41.83,152.099511 43.731,152.099511 C45.38,152.099511 46.874,151.464711 47.776,150.413867 C48.678,151.464711 50.171,152.099511 51.822,152.099511 C53.472,152.099511 54.965,151.464711 55.867,150.413867 C56.772,151.464711 58.263,152.099511 59.913,152.099511 C61.563,152.099511 63.054,151.464711 63.959,150.413867 C64.864,151.464711 66.354,152.099511 68.004,152.099511 C69.905,152.099511 71.595,151.261289 72.418,149.910933 C72.557,149.700356 72.494,149.429467 72.291,149.2976 L72.291,149.2976 Z M140.581,146.309644 C140.375,146.180844 140.109,146.245244 139.983,146.451733 C139.329,147.528133 137.884,148.222222 136.306,148.222222 C134.728,148.222222 133.282,147.528133 132.628,146.451733 C132.625,146.448667 132.622,146.4456 132.619,146.442533 C132.604,146.418 132.582,146.400622 132.561,146.3812 C132.541,146.359733 132.522,146.3352 132.498,146.319867 C132.495,146.3168 132.492,146.313733 132.489,146.309644 C132.471,146.2984 132.449,146.2984 132.432,146.2892 C132.402,146.275911 132.375,146.2616 132.341,146.254444 C132.314,146.248311 132.287,146.251378 132.26,146.251378 C132.232,146.251378 132.206,146.248311 132.178,146.254444 C132.145,146.2616 132.118,146.275911 132.088,146.2892 C132.07,146.2984 132.049,146.2984 132.03,146.309644 C132.028,146.313733 132.025,146.3168 132.022,146.319867 C131.997,146.3352 131.979,146.359733 131.958,146.3812 C131.937,146.403689 131.916,146.421067 131.9,146.442533 C131.898,146.4456 131.895,146.448667 131.892,146.451733 C131.237,147.528133 129.792,148.222222 128.214,148.222222 C126.636,148.222222 125.194,147.528133 124.536,146.451733 C124.533,146.448667 124.53,146.4456 124.528,146.442533 C124.512,146.418 124.488,146.400622 124.467,146.378133 C124.446,146.356667 124.428,146.332133 124.403,146.3168 C124.4,146.313733 124.398,146.309644 124.395,146.3076 C124.376,146.295333 124.359,146.295333 124.337,146.286133 C124.307,146.273867 124.28,146.257511 124.247,146.251378 C124.22,146.245244 124.196,146.248311 124.169,146.248311 C124.139,146.248311 124.111,146.245244 124.081,146.251378 C124.051,146.257511 124.023,146.273867 123.993,146.286133 C123.973,146.295333 123.951,146.2984 123.933,146.3076 C123.93,146.309644 123.927,146.313733 123.924,146.3168 C123.9,146.332133 123.882,146.356667 123.861,146.378133 C123.84,146.400622 123.819,146.418 123.8,146.442533 C123.797,146.4456 123.794,146.448667 123.791,146.451733 C123.137,147.528133 121.695,148.222222 120.114,148.222222 C118.536,148.222222 117.091,147.528133 116.436,146.451733 C116.309,146.2432 116.041,146.180844 115.839,146.309644 C115.634,146.440489 115.573,146.714444 115.7,146.920933 C116.523,148.272311 118.213,149.110533 120.114,149.110533 C121.764,149.110533 123.257,148.475733 124.159,147.423867 C125.061,148.475733 126.555,149.110533 128.205,149.110533 C129.855,149.110533 131.349,148.475733 132.251,147.423867 C133.155,148.475733 134.646,149.110533 136.296,149.110533 C138.197,149.110533 139.886,148.272311 140.71,146.920933 C140.846,146.711378 140.782,146.440489 140.581,146.309644 L140.581,146.309644 Z M61.152,119.1124 C60.784,119.194178 60.397,119.238133 60.002,119.238133 C58.424,119.238133 56.978,118.544044 56.324,117.467644 C56.321,117.464578 56.318,117.461511 56.315,117.458444 C56.3,117.433911 56.278,117.415511 56.257,117.397111 C56.237,117.375644 56.218,117.351111 56.194,117.335778 C56.191,117.331689 56.188,117.328622 56.185,117.325556 C56.167,117.314311 56.146,117.314311 56.128,117.305111 C56.098,117.291822 56.07,117.276489 56.037,117.270356 C56.01,117.264222 55.982,117.267289 55.956,117.267289 C55.928,117.267289 55.901,117.264222 55.874,117.270356 C55.841,117.276489 55.814,117.291822 55.784,117.305111 C55.765,117.314311 55.745,117.314311 55.726,117.325556 C55.724,117.328622 55.721,117.331689 55.718,117.335778 C55.693,117.351111 55.675,117.375644 55.654,117.397111 C55.633,117.418578 55.612,117.436978 55.596,117.458444 C55.594,117.461511 55.591,117.464578 55.588,117.467644 C54.933,118.544044 53.488,119.238133 51.91,119.238133 C50.332,119.238133 48.89,118.544044 48.232,117.467644 C48.229,117.464578 48.226,117.461511 48.224,117.458444 C48.208,117.433911 48.184,117.415511 48.163,117.394044 C48.142,117.372578 48.124,117.348044 48.099,117.331689 C48.096,117.328622 48.094,117.325556 48.091,117.323511 C48.072,117.311244 48.055,117.311244 48.033,117.301022 C48.003,117.289778 47.976,117.273422 47.943,117.267289 C47.916,117.261156 47.892,117.264222 47.864,117.264222 C47.834,117.264222 47.807,117.261156 47.777,117.267289 C47.746,117.273422 47.719,117.289778 47.689,117.301022 C47.668,117.311244 47.647,117.314311 47.629,117.323511 C47.626,117.325556 47.623,117.328622 47.62,117.331689 C47.596,117.348044 47.578,117.372578 47.556,117.394044 C47.535,117.415511 47.515,117.433911 47.496,117.458444 C47.493,117.461511 47.49,117.464578 47.487,117.467644 C46.833,118.544044 45.391,119.238133 43.81,119.238133 C43.436,119.238133 43.07,119.199289 42.72,119.125689 L41.747,119.772756 C42.378,120.001733 43.078,120.126444 43.81,120.126444 C45.459,120.126444 46.953,119.491644 47.855,118.439778 C48.757,119.491644 50.251,120.126444 51.901,120.126444 C53.551,120.126444 55.045,119.491644 55.947,118.439778 C56.851,119.491644 58.342,120.126444 59.992,120.126444 C60.23,120.126444 60.464,120.113156 60.694,120.0876 L61.152,119.1124 L61.152,119.1124 Z M38.176,110.425556 C37.971,110.295733 37.705,110.361156 37.579,110.567644 C36.924,111.643022 35.479,112.337111 33.902,112.337111 C32.324,112.337111 30.878,111.643022 30.224,110.567644 C30.221,110.564578 30.217,110.561511 30.214,110.558444 C30.2,110.533911 30.178,110.515511 30.157,110.496089 C30.136,110.475644 30.118,110.451111 30.094,110.434756 C30.091,110.431689 30.088,110.428622 30.085,110.425556 C30.067,110.413289 30.045,110.413289 30.027,110.404089 C29.997,110.391822 29.97,110.376489 29.937,110.370356 C29.91,110.364222 29.882,110.367289 29.855,110.367289 C29.828,110.367289 29.801,110.364222 29.774,110.370356 C29.741,110.376489 29.714,110.391822 29.684,110.404089 C29.665,110.413289 29.644,110.413289 29.626,110.425556 C29.624,110.428622 29.62,110.431689 29.617,110.434756 C29.593,110.451111 29.575,110.475644 29.554,110.496089 C29.532,110.518578 29.512,110.536978 29.496,110.558444 C29.494,110.561511 29.491,110.564578 29.488,110.567644 C28.833,111.643022 27.388,112.337111 25.81,112.337111 C24.232,112.337111 22.79,111.643022 22.132,110.567644 C22.129,110.564578 22.126,110.561511 22.124,110.558444 C22.108,110.533911 22.084,110.515511 22.062,110.493022 C22.042,110.471556 22.024,110.448044 21.999,110.431689 C21.996,110.428622 21.994,110.425556 21.991,110.422489 C21.972,110.410222 21.954,110.410222 21.933,110.401022 C21.903,110.388756 21.876,110.373422 21.842,110.367289 C21.815,110.361156 21.791,110.364222 21.764,110.364222 C21.734,110.364222 21.707,110.361156 21.676,110.367289 C21.646,110.373422 21.619,110.388756 21.589,110.401022 C21.568,110.410222 21.547,110.413289 21.529,110.422489 C21.526,110.425556 21.523,110.428622 21.52,110.431689 C21.496,110.448044 21.478,110.471556 21.456,110.493022 C21.435,110.515511 21.415,110.533911 21.396,110.558444 C21.393,110.561511 21.39,110.564578 21.387,110.567644 C20.732,111.643022 19.291,112.337111 17.71,112.337111 C16.132,112.337111 14.687,111.643022 14.032,110.567644 C13.905,110.358089 13.636,110.295733 13.435,110.425556 C13.229,110.555378 13.169,110.829333 13.296,111.036844 C14.119,112.3872 15.809,113.225422 17.71,113.225422 C19.359,113.225422 20.853,112.590622 21.755,111.539778 C22.657,112.590622 24.151,113.225422 25.8,113.225422 C27.451,113.225422 28.945,112.590622 29.847,111.539778 C30.751,112.590622 32.242,113.225422 33.892,113.225422 C35.793,113.225422 37.482,112.3872 38.306,111.036844 C38.441,110.826267 38.378,110.555378 38.176,110.425556 L38.176,110.425556 Z M171.605,129.953067 C171.4,129.824267 171.134,129.888667 171.008,130.095156 C170.353,131.171556 168.908,131.864622 167.33,131.864622 C165.752,131.864622 164.31,131.171556 163.653,130.095156 C163.65,130.092089 163.646,130.088 163.643,130.085956 C163.628,130.0604 163.604,130.043022 163.583,130.021556 C163.561,129.999067 163.544,129.9776 163.52,129.9592 C163.517,129.956133 163.514,129.953067 163.511,129.95 C163.492,129.937733 163.471,129.937733 163.45,129.928533 C163.423,129.916267 163.393,129.900933 163.362,129.893778 C163.335,129.888667 163.308,129.890711 163.281,129.890711 C163.254,129.890711 163.227,129.888667 163.2,129.893778 C163.169,129.900933 163.142,129.916267 163.112,129.928533 C163.091,129.937733 163.07,129.9408 163.052,129.95 C163.049,129.953067 163.046,129.956133 163.043,129.9592 C163.019,129.974533 163.001,129.999067 162.979,130.021556 C162.958,130.043022 162.938,130.0604 162.919,130.085956 C162.916,130.088 162.913,130.092089 162.911,130.095156 C162.255,131.171556 160.811,131.864622 159.233,131.864622 C157.655,131.864622 156.213,131.171556 155.555,130.095156 C155.552,130.092089 155.549,130.088 155.546,130.085956 C155.531,130.0604 155.507,130.043022 155.485,130.021556 C155.464,129.999067 155.446,129.9776 155.422,129.9592 C155.419,129.956133 155.416,129.953067 155.413,129.95 C155.395,129.937733 155.374,129.937733 155.352,129.928533 C155.325,129.916267 155.295,129.900933 155.265,129.893778 C155.238,129.888667 155.211,129.890711 155.184,129.890711 C155.157,129.890711 155.129,129.888667 155.102,129.893778 C155.072,129.900933 155.045,129.916267 155.015,129.928533 C154.994,129.937733 154.973,129.9408 154.955,129.95 C154.952,129.953067 154.949,129.956133 154.945,129.9592 C154.921,129.974533 154.903,129.999067 154.882,130.021556 C154.861,130.043022 154.84,130.0604 154.822,130.085956 C154.819,130.088 154.816,130.092089 154.813,130.095156 C154.158,131.171556 152.713,131.864622 151.135,131.864622 C149.558,131.864622 148.115,131.171556 147.458,130.095156 C147.455,130.092089 147.452,130.088 147.448,130.085956 C147.434,130.0604 147.409,130.043022 147.388,130.021556 C147.367,129.999067 147.349,129.9776 147.328,129.962267 C147.325,129.9592 147.322,129.956133 147.319,129.953067 C147.301,129.9408 147.279,129.937733 147.258,129.9316 C147.228,129.919333 147.201,129.904 147.174,129.896844 C147.146,129.890711 147.119,129.893778 147.089,129.893778 C147.062,129.893778 147.035,129.890711 147.005,129.896844 C146.975,129.904 146.948,129.919333 146.92,129.9316 C146.899,129.9408 146.878,129.943867 146.86,129.953067 C146.857,129.956133 146.855,129.9592 146.851,129.962267 C146.827,129.9776 146.809,130.002133 146.788,130.0236 C146.766,130.046089 146.746,130.063467 146.727,130.088 C146.725,130.092089 146.722,130.095156 146.719,130.098222 C146.064,131.1736 144.622,131.867689 143.041,131.867689 C141.463,131.867689 140.018,131.1736 139.363,130.098222 C139.36,130.095156 139.357,130.092089 139.354,130.088 C139.339,130.063467 139.315,130.046089 139.293,130.0236 C139.273,130.002133 139.255,129.980667 139.23,129.962267 C139.227,129.9592 139.225,129.956133 139.222,129.953067 C139.203,129.9408 139.182,129.9408 139.161,129.9316 C139.131,129.919333 139.103,129.904 139.073,129.896844 C139.046,129.890711 139.019,129.893778 138.992,129.893778 C138.965,129.893778 138.938,129.890711 138.91,129.896844 C138.88,129.904 138.85,129.919333 138.823,129.9316 C138.805,129.9408 138.784,129.943867 138.763,129.953067 C138.76,129.956133 138.757,129.9592 138.754,129.962267 C138.73,129.9776 138.712,130.002133 138.69,130.0236 C138.669,130.046089 138.648,130.063467 138.633,130.088 C138.63,130.092089 138.627,130.095156 138.624,130.098222 C137.97,131.1736 136.524,131.867689 134.947,131.867689 C133.369,131.867689 131.926,131.1736 131.269,130.098222 C131.142,129.888667 130.874,129.826311 130.671,129.956133 C130.467,130.085956 130.406,130.359911 130.533,130.5664 C131.356,131.917778 133.046,132.756 134.947,132.756 C136.596,132.756 138.09,132.1212 138.992,131.069333 C139.894,132.1212 141.387,132.756 143.038,132.756 C144.688,132.756 146.181,132.1212 147.083,131.069333 C147.985,132.1212 149.479,132.756 151.129,132.756 C152.779,132.756 154.273,132.1212 155.175,131.069333 C156.08,132.1212 157.57,132.756 159.22,132.756 C160.871,132.756 162.361,132.1212 163.266,131.069333 C164.171,132.1212 165.661,132.756 167.312,132.756 C169.213,132.756 170.902,131.917778 171.726,130.5664 C171.873,130.356844 171.81,130.082889 171.605,129.953067 L171.605,129.953067 Z M184.632,107.546978 C184.427,107.417156 184.162,107.482578 184.035,107.688044 C183.38,108.765467 181.935,109.458533 180.357,109.458533 C178.779,109.458533 177.337,108.765467 176.68,107.688044 C176.677,107.684978 176.674,107.681911 176.671,107.679867 C176.655,107.654311 176.631,107.635911 176.611,107.614444 C176.589,107.592978 176.571,107.571511 176.547,107.552089 C176.544,107.550044 176.541,107.546978 176.538,107.543911 C176.519,107.530622 176.499,107.530622 176.478,107.521422 C176.451,107.510178 176.421,107.493822 176.39,107.487689 C176.363,107.482578 176.336,107.484622 176.309,107.484622 C176.281,107.484622 176.255,107.482578 176.227,107.487689 C176.197,107.493822 176.169,107.510178 176.139,107.521422 C176.118,107.530622 176.098,107.534711 176.079,107.543911 C176.076,107.546978 176.073,107.550044 176.07,107.552089 C176.046,107.568444 176.028,107.592978 176.007,107.614444 C175.986,107.635911 175.965,107.654311 175.946,107.679867 C175.943,107.681911 175.94,107.684978 175.938,107.688044 C175.283,108.765467 173.838,109.458533 172.26,109.458533 C170.682,109.458533 169.24,108.765467 168.582,107.688044 C168.579,107.684978 168.576,107.681911 168.573,107.679867 C168.558,107.654311 168.534,107.635911 168.513,107.614444 C168.492,107.592978 168.473,107.571511 168.449,107.552089 C168.446,107.550044 168.443,107.546978 168.441,107.543911 C168.422,107.530622 168.401,107.530622 168.38,107.521422 C168.353,107.510178 168.323,107.493822 168.293,107.487689 C168.266,107.482578 168.238,107.484622 168.211,107.484622 C168.184,107.484622 168.157,107.482578 168.13,107.487689 C168.1,107.493822 168.072,107.510178 168.042,107.521422 C168.021,107.530622 168,107.534711 167.982,107.543911 C167.979,107.546978 167.976,107.550044 167.973,107.552089 C167.949,107.568444 167.93,107.592978 167.91,107.614444 C167.889,107.635911 167.867,107.654311 167.849,107.679867 C167.846,107.681911 167.843,107.684978 167.84,107.688044 C167.186,108.765467 165.74,109.458533 164.162,109.458533 C162.585,109.458533 161.142,108.765467 160.485,107.688044 C160.482,107.684978 160.479,107.681911 160.476,107.679867 C160.461,107.654311 160.436,107.635911 160.416,107.614444 C160.395,107.592978 160.376,107.571511 160.355,107.555156 C160.352,107.552089 160.349,107.550044 160.346,107.546978 C160.328,107.534711 160.307,107.530622 160.286,107.524489 C160.256,107.513244 160.229,107.496889 160.202,107.490756 C160.174,107.484622 160.147,107.487689 160.117,107.487689 C160.09,107.487689 160.063,107.484622 160.033,107.490756 C160.002,107.496889 159.975,107.513244 159.947,107.524489 C159.927,107.534711 159.906,107.537778 159.887,107.546978 C159.884,107.550044 159.882,107.552089 159.879,107.555156 C159.854,107.571511 159.836,107.596044 159.816,107.617511 C159.794,107.638978 159.773,107.657378 159.754,107.681911 C159.752,107.684978 159.749,107.688044 159.746,107.691111 C159.091,108.767511 157.649,109.4616 156.068,109.4616 C154.49,109.4616 153.045,108.767511 152.39,107.691111 C152.387,107.688044 152.384,107.684978 152.382,107.681911 C152.366,107.657378 152.342,107.638978 152.321,107.617511 C152.3,107.596044 152.282,107.574578 152.257,107.555156 C152.254,107.552089 152.252,107.550044 152.249,107.546978 C152.23,107.534711 152.21,107.534711 152.189,107.524489 C152.159,107.513244 152.131,107.496889 152.101,107.490756 C152.074,107.484622 152.047,107.487689 152.02,107.487689 C151.992,107.487689 151.965,107.484622 151.938,107.490756 C151.908,107.496889 151.878,107.513244 151.85,107.524489 C151.833,107.534711 151.811,107.537778 151.79,107.546978 C151.787,107.550044 151.784,107.552089 151.781,107.555156 C151.757,107.571511 151.739,107.596044 151.718,107.617511 C151.697,107.638978 151.675,107.657378 151.66,107.681911 C151.657,107.684978 151.654,107.688044 151.651,107.691111 C150.997,108.767511 149.551,109.4616 147.974,109.4616 C146.396,109.4616 144.954,108.767511 144.296,107.691111 C144.17,107.482578 143.901,107.420222 143.699,107.550044 C143.494,107.679867 143.434,107.953822 143.56,108.160311 C144.384,109.510667 146.073,110.349911 147.974,110.349911 C149.624,110.349911 151.117,109.715111 152.02,108.663244 C152.922,109.715111 154.415,110.349911 156.065,110.349911 C157.715,110.349911 159.208,109.715111 160.111,108.663244 C161.013,109.715111 162.506,110.349911 164.157,110.349911 C165.806,110.349911 167.3,109.715111 168.202,108.663244 C169.107,109.715111 170.597,110.349911 172.248,110.349911 C173.898,110.349911 175.389,109.715111 176.294,108.663244 C177.198,109.715111 178.689,110.349911 180.339,110.349911 C182.24,110.349911 183.929,109.510667 184.753,108.160311 C184.901,107.949733 184.837,107.6768 184.632,107.546978 L184.632,107.546978 Z" id="Fill-19" fill="#333333"></path>
                        <path d="M132.98,55.8818222 C131.511,55.9349778 130.279,54.7614667 130.222,53.2598222 C130.17,51.7581778 131.322,50.4947111 132.782,50.4466667 C134.255,50.3884 135.487,51.566 135.539,53.0625333 C135.596,54.5641778 134.449,55.8235556 132.98,55.8818222" id="Fill-20" fill="#333333"></path>
                        <path d="M102.368,88.0767111 C106.306,88.5050222 119.427,89.0907556 132.425,89.2655556 C132.525,89.0672444 132.677,88.8924444 132.886,88.7769333 C133.014,88.7043556 133.173,88.6460889 133.401,88.5643111 C134.364,88.2167556 134.888,87.9121333 134.964,87.6565778 C135.162,86.9665778 134.662,83.3888 133.731,81.3228889 C132.816,79.2856 132.068,77.7318222 132.064,77.7113778 L132.012,77.6050667 L131.989,77.4905778 L131.464,74.8828889 L131.455,74.8348444 L131.451,74.7857778 C131.422,74.4975111 130.77,67.7426667 130.728,66.6764889 C130.718,66.4342222 130.628,66.2716889 130.544,66.1694667 C130.477,66.1735556 130.411,66.1735556 130.341,66.1735556 C128.57,66.1735556 126.312,64.6340889 125.641,64.1464889 C124.301,63.8183556 123.558,62.6407556 123.635,61.6696444 C123.696,60.8641333 124.296,60.2998667 125.089,60.2998667 C125.674,60.2998667 126.312,60.5891556 127.049,61.1871556 C127.804,61.7994667 128.55,62.1143111 129.268,62.1143111 C129.598,62.1143111 129.858,62.0468444 130.038,61.9844889 C130.138,61.5255111 130.307,60.5554222 130.458,58.8411556 C130.604,57.1125778 131.714,56.0791111 133.428,56.0791111 C134.26,56.0791111 134.959,56.3162667 135.034,56.3448889 L135.271,56.4276889 L135.432,56.6208889 C135.45,56.6403111 137.268,58.8319556 139.139,60.9213778 C141.287,63.3256444 140.456,65.2136889 140.258,65.5806667 L137.782,70.3074222 L137.904,70.3932889 C137.833,70.6171556 137.777,70.8461333 137.736,71.0792 L137.543,70.9432444 L137.556,73.9475556 C137.415,78.1028889 138.204,79.4501778 138.212,79.4593778 L138.237,79.4941333 L138.242,79.5033333 C139.597,81.8636444 139.87,84.9190667 140.088,87.3724 C140.135,87.9121333 140.182,88.4191556 140.234,88.8689333 C140.255,89.0498667 140.271,89.2093333 140.286,89.3667556 C155.272,89.5609778 178.07,89.8594667 179.333,89.9208 C184.069,90.1477333 188.541,91.3836 178.998,92.5131556 C169.453,93.6376 129.391,93.8747556 122.591,93.334 C115.786,92.7891556 103.233,91.1617778 100.815,89.7132889 C98.392,88.2648 98.373,87.6463556 102.368,88.0767111" id="Fill-21" fill="#333333"></path>
                        <path d="M136.804,69.5100889 L135.579,71.1466667 C135.479,71.2795556 135.504,71.4727556 135.634,71.5749778 L135.792,71.6986667 C135.923,71.8008889 136.111,71.7753333 136.211,71.6414222 L137.437,70.0048444 C137.537,69.8719556 137.512,69.6797778 137.381,69.5775556 L137.223,69.4538667 C137.093,69.3516444 136.904,69.3772 136.804,69.5100889" id="Fill-22" fill="#333333"></path>
                        <path d="M115.952,53.9109778 L136.985,70.3738667 L136.418,71.1303111 L115.385,54.6674222 L115.952,53.9109778" id="Fill-23" fill="#333333"></path>
                        <path d="M108.23,52.0024889 C111.408,54.4824 112.933,52.8345778 115.625,54.8391556 C115.709,54.9015111 115.834,54.8739111 115.906,54.7778222 L116.19,54.3975556 C116.262,54.3014667 116.256,54.1706222 116.175,54.1052 C113.578,51.9697778 114.74,50.0336889 111.569,47.5445778 C110.135,46.4293333 108.462,46.6470667 107.521,47.9105333 C106.576,49.1648 106.803,50.8780444 108.23,52.0024889 L108.23,52.0024889 Z M107.919,50.7921778 C107.217,50.2432444 107.512,48.8765333 107.965,48.2713778 C108.419,47.6662222 109.632,47.0191556 110.334,47.5680889 C111.005,48.0935111 111.156,49.3988889 110.509,50.2626667 C109.862,51.1264444 108.59,51.3176 107.919,50.7921778 L107.919,50.7921778 Z" id="Fill-24" fill="#333333"></path>
                        <path d="M74.998,101.322 C74.998,101.303 74.997,101.285 74.996,101.266 C74.995,101.225 74.994,101.185 74.992,101.144 C74.991,101.123 74.99,101.102 74.989,101.081 C74.986,101.041 74.984,101.002 74.981,100.962 C74.98,100.942 74.978,100.922 74.977,100.903 C74.973,100.855 74.969,100.808 74.964,100.761 C74.963,100.75 74.962,100.739 74.961,100.728 C74.955,100.671 74.949,100.613 74.941,100.556 C74.939,100.539 74.937,100.522 74.935,100.506 C74.929,100.465 74.924,100.424 74.918,100.384 C74.914,100.363 74.911,100.342 74.908,100.321 C74.902,100.284 74.896,100.247 74.889,100.21 C74.886,100.189 74.882,100.168 74.878,100.148 C74.871,100.107 74.863,100.067 74.855,100.027 C74.852,100.011 74.849,99.995 74.846,99.978 C74.835,99.923 74.823,99.868 74.81,99.814 C74.807,99.799 74.803,99.784 74.799,99.77 C74.79,99.729 74.78,99.688 74.77,99.648 C74.765,99.627 74.759,99.607 74.754,99.586 C74.744,99.551 74.735,99.517 74.725,99.482 C74.719,99.461 74.713,99.439 74.707,99.418 C74.697,99.383 74.687,99.347 74.676,99.312 C74.67,99.293 74.664,99.274 74.658,99.255 C74.642,99.202 74.625,99.15 74.608,99.098 C74.604,99.087 74.6,99.076 74.596,99.065 C74.582,99.023 74.567,98.981 74.552,98.94 C74.545,98.919 74.537,98.899 74.529,98.879 C74.517,98.846 74.505,98.814 74.492,98.782 C74.484,98.76 74.475,98.739 74.467,98.717 C74.454,98.686 74.441,98.654 74.428,98.623 C74.42,98.602 74.411,98.582 74.402,98.561 C74.387,98.524 74.37,98.487 74.354,98.45 C74.348,98.436 74.341,98.421 74.335,98.407 C74.313,98.359 74.291,98.311 74.268,98.263 C74.258,98.243 74.248,98.224 74.239,98.204 C74.224,98.174 74.209,98.144 74.194,98.114 C74.183,98.092 74.172,98.071 74.161,98.05 C74.146,98.021 74.131,97.993 74.116,97.965 C74.105,97.944 74.094,97.923 74.082,97.902 C74.065,97.871 74.048,97.841 74.031,97.811 C74.021,97.793 74.011,97.775 74.001,97.757 C73.975,97.712 73.948,97.667 73.921,97.622 C73.91,97.604 73.899,97.585 73.887,97.567 C73.87,97.539 73.852,97.51 73.834,97.481 C73.821,97.461 73.807,97.44 73.794,97.42 C73.777,97.394 73.76,97.368 73.743,97.342 C73.729,97.322 73.716,97.301 73.702,97.281 C73.683,97.254 73.665,97.227 73.646,97.2 C73.633,97.182 73.62,97.164 73.607,97.145 C73.577,97.103 73.547,97.061 73.515,97.02 C72.696,95.922 71.584,95.056 70.294,94.538 C70.242,94.517 70.191,94.497 70.139,94.478 C70.135,94.476 70.131,94.475 70.128,94.473 C70.079,94.455 70.029,94.437 69.98,94.42 C69.973,94.418 69.966,94.415 69.96,94.413 C69.912,94.396 69.865,94.381 69.817,94.365 C69.808,94.362 69.798,94.359 69.789,94.356 C69.743,94.342 69.697,94.327 69.651,94.313 C69.64,94.31 69.628,94.306 69.616,94.303 C69.572,94.29 69.528,94.278 69.483,94.265 C69.469,94.262 69.455,94.258 69.441,94.254 C69.399,94.243 69.356,94.232 69.313,94.221 C69.297,94.217 69.281,94.213 69.264,94.209 C69.223,94.199 69.182,94.19 69.14,94.18 C69.122,94.176 69.104,94.172 69.085,94.168 C69.045,94.16 69.006,94.151 68.966,94.143 C68.945,94.139 68.925,94.136 68.904,94.132 C68.866,94.124 68.827,94.117 68.789,94.111 C68.766,94.107 68.743,94.103 68.721,94.099 C68.684,94.093 68.647,94.087 68.61,94.082 C68.585,94.078 68.56,94.075 68.535,94.071 C68.5,94.066 68.465,94.062 68.429,94.057 C68.402,94.054 68.374,94.051 68.347,94.048 C68.314,94.044 68.28,94.04 68.247,94.037 C68.217,94.034 68.186,94.032 68.156,94.029 C68.125,94.026 68.094,94.023 68.063,94.021 C68.029,94.018 67.995,94.016 67.961,94.014 C67.933,94.013 67.905,94.011 67.877,94.009 C67.837,94.007 67.797,94.006 67.758,94.005 C67.735,94.004 67.712,94.003 67.689,94.002 C67.627,94.001 67.564,94 67.5,94 C67.437,94 67.374,94.001 67.311,94.002 C67.289,94.003 67.266,94.004 67.243,94.005 C67.203,94.006 67.163,94.007 67.124,94.009 C67.096,94.011 67.068,94.013 67.04,94.014 C67.006,94.016 66.972,94.018 66.938,94.021 C66.907,94.023 66.876,94.026 66.844,94.029 C66.814,94.032 66.784,94.034 66.754,94.037 C66.72,94.04 66.687,94.044 66.654,94.048 C66.626,94.051 66.599,94.054 66.571,94.057 C66.536,94.062 66.501,94.066 66.466,94.071 C66.441,94.075 66.416,94.078 66.391,94.082 C66.354,94.087 66.317,94.093 66.28,94.099 C66.257,94.103 66.235,94.107 66.212,94.111 C66.174,94.117 66.135,94.124 66.096,94.132 C66.076,94.136 66.056,94.139 66.036,94.143 C65.995,94.151 65.955,94.16 65.915,94.168 C65.897,94.172 65.879,94.176 65.861,94.18 C65.819,94.189 65.778,94.199 65.736,94.209 L65.688,94.221 C65.645,94.232 65.602,94.243 65.559,94.254 C65.545,94.258 65.531,94.262 65.518,94.265 C65.473,94.277 65.428,94.29 65.384,94.303 C65.373,94.306 65.361,94.31 65.35,94.313 C65.304,94.327 65.257,94.342 65.211,94.356 C65.202,94.359 65.194,94.362 65.185,94.365 C65.137,94.38 65.089,94.396 65.041,94.413 C65.035,94.415 65.029,94.417 65.022,94.419 C64.972,94.437 64.922,94.455 64.872,94.474 C64.869,94.475 64.867,94.476 64.864,94.477 C63.506,94.987 62.335,95.88 61.482,97.024 C61.453,97.064 61.423,97.104 61.394,97.145 C61.38,97.164 61.367,97.183 61.353,97.203 C61.335,97.228 61.317,97.254 61.3,97.28 C61.285,97.301 61.271,97.322 61.257,97.343 C61.241,97.368 61.224,97.394 61.207,97.419 C61.194,97.44 61.18,97.461 61.167,97.482 C61.149,97.51 61.132,97.537 61.115,97.565 C61.103,97.584 61.091,97.603 61.079,97.622 C61.052,97.667 61.026,97.711 61,97.757 C60.989,97.775 60.979,97.794 60.968,97.812 C60.952,97.842 60.935,97.871 60.919,97.901 C60.907,97.923 60.896,97.944 60.884,97.966 C60.869,97.993 60.855,98.021 60.84,98.049 C60.829,98.071 60.818,98.092 60.807,98.114 C60.792,98.144 60.777,98.174 60.762,98.203 C60.753,98.223 60.743,98.243 60.733,98.264 C60.71,98.311 60.688,98.358 60.667,98.405 C60.66,98.421 60.653,98.436 60.647,98.451 C60.63,98.487 60.614,98.524 60.598,98.561 C60.59,98.582 60.581,98.602 60.572,98.624 C60.559,98.655 60.547,98.686 60.534,98.717 C60.525,98.739 60.517,98.76 60.508,98.782 C60.496,98.814 60.484,98.846 60.472,98.878 C60.464,98.899 60.456,98.919 60.449,98.94 C60.434,98.981 60.419,99.023 60.405,99.064 C60.401,99.076 60.397,99.087 60.393,99.098 C60.376,99.15 60.359,99.202 60.343,99.255 L60.325,99.312 C60.314,99.347 60.304,99.382 60.294,99.418 C60.287,99.439 60.281,99.461 60.275,99.482 C60.266,99.517 60.256,99.551 60.247,99.586 C60.242,99.607 60.236,99.627 60.231,99.648 C60.221,99.688 60.211,99.729 60.201,99.77 C60.198,99.784 60.194,99.799 60.191,99.814 C60.178,99.868 60.166,99.923 60.155,99.978 C60.152,99.995 60.149,100.011 60.145,100.027 C60.137,100.067 60.129,100.107 60.122,100.148 C60.118,100.168 60.115,100.189 60.111,100.21 C60.105,100.247 60.099,100.284 60.093,100.322 C60.09,100.342 60.086,100.363 60.083,100.384 C60.077,100.424 60.072,100.465 60.066,100.506 C60.064,100.523 60.062,100.539 60.059,100.556 C60.052,100.613 60.046,100.671 60.04,100.728 C60.038,100.739 60.038,100.75 60.036,100.761 C60.032,100.808 60.028,100.855 60.024,100.903 C60.023,100.922 60.021,100.942 60.02,100.962 C60.017,101.002 60.014,101.041 60.012,101.081 C60.011,101.102 60.01,101.123 60.009,101.144 C60.007,101.185 60.006,101.225 60.004,101.266 C60.004,101.285 60.003,101.303 60.003,101.322 C60.001,101.381 60,101.44 60,101.5 C60,101.553 60.001,101.606 60.002,101.659 C60.003,101.683 60.004,101.707 60.004,101.73 C60.005,101.751 60.006,101.771 60.007,101.792 C60.058,103.139 60.465,104.395 61.136,105.47 L61.137,105.47 C61.264,105.674 61.401,105.871 61.546,106.06 C61.547,106.061 61.548,106.062 61.549,106.063 C61.693,106.251 61.845,106.432 62.006,106.605 L62.018,106.617 C62.048,106.65 62.079,106.682 62.11,106.714 C62.111,106.715 62.113,106.717 62.114,106.718 C62.211,106.818 62.31,106.915 62.412,107.01 C62.416,107.012 62.419,107.016 62.422,107.018 C62.452,107.046 62.483,107.074 62.514,107.101 C62.522,107.109 62.531,107.116 62.539,107.124 C62.569,107.15 62.599,107.176 62.63,107.202 C62.636,107.209 62.644,107.214 62.651,107.221 C62.748,107.303 62.847,107.383 62.948,107.46 C62.958,107.468 62.968,107.476 62.979,107.484 C63.008,107.505 63.037,107.527 63.066,107.549 C63.08,107.559 63.094,107.569 63.107,107.579 C63.136,107.6 63.165,107.62 63.194,107.64 C63.207,107.65 63.221,107.659 63.235,107.669 C63.331,107.736 63.429,107.8 63.528,107.862 C63.545,107.873 63.562,107.883 63.578,107.894 C63.606,107.91 63.634,107.927 63.662,107.944 C63.68,107.955 63.699,107.966 63.718,107.977 C63.745,107.993 63.773,108.009 63.8,108.025 C63.82,108.036 63.839,108.047 63.859,108.058 C63.955,108.111 64.052,108.162 64.151,108.212 C64.173,108.223 64.194,108.233 64.216,108.244 C64.243,108.257 64.27,108.27 64.298,108.283 C64.32,108.294 64.342,108.304 64.365,108.315 C64.392,108.327 64.419,108.339 64.447,108.352 C64.469,108.362 64.493,108.372 64.516,108.382 C64.543,108.394 64.57,108.406 64.597,108.417 C65.49,108.792 66.471,109 67.5,109 C68.516,109 69.484,108.798 70.367,108.432 C70.413,108.413 70.458,108.394 70.503,108.374 C70.508,108.372 70.512,108.37 70.517,108.368 C70.561,108.349 70.605,108.329 70.648,108.309 C70.652,108.307 70.656,108.305 70.659,108.304 C70.889,108.197 71.112,108.079 71.328,107.951 C71.332,107.948 71.337,107.945 71.341,107.943 C71.38,107.919 71.419,107.896 71.457,107.872 C71.465,107.867 71.472,107.862 71.48,107.857 C71.518,107.834 71.554,107.811 71.591,107.787 C71.599,107.782 71.606,107.777 71.614,107.772 C71.651,107.747 71.689,107.722 71.726,107.697 C71.728,107.695 71.729,107.694 71.731,107.693 C71.852,107.611 71.97,107.525 72.085,107.435 C72.091,107.431 72.097,107.426 72.103,107.421 C72.134,107.397 72.165,107.373 72.196,107.348 C72.208,107.338 72.221,107.328 72.233,107.318 C72.262,107.295 72.29,107.271 72.318,107.248 C72.332,107.236 72.347,107.224 72.361,107.212 C72.388,107.188 72.415,107.165 72.441,107.142 C72.456,107.129 72.471,107.116 72.485,107.103 C72.512,107.079 72.538,107.056 72.564,107.032 C72.577,107.02 72.591,107.007 72.604,106.995 C72.66,106.943 72.715,106.89 72.77,106.837 C72.777,106.829 72.785,106.822 72.792,106.814 C72.814,106.793 72.835,106.771 72.857,106.749 C72.875,106.731 72.892,106.713 72.91,106.695 C72.93,106.673 72.95,106.652 72.97,106.631 C72.988,106.611 73.007,106.591 73.025,106.571 C73.044,106.551 73.063,106.53 73.082,106.509 C73.101,106.488 73.12,106.466 73.139,106.445 C73.157,106.425 73.174,106.405 73.192,106.384 C73.212,106.361 73.232,106.337 73.252,106.313 C73.267,106.295 73.283,106.276 73.299,106.257 C73.324,106.226 73.348,106.196 73.373,106.165 C73.383,106.152 73.393,106.14 73.404,106.127 C73.437,106.084 73.47,106.04 73.503,105.997 C73.515,105.981 73.527,105.964 73.539,105.948 C73.56,105.919 73.582,105.89 73.603,105.86 C73.616,105.842 73.629,105.824 73.642,105.805 C73.662,105.777 73.681,105.749 73.701,105.721 C73.713,105.702 73.726,105.683 73.739,105.664 L73.796,105.577 C73.808,105.559 73.82,105.54 73.831,105.522 C73.852,105.49 73.872,105.458 73.892,105.426 C73.901,105.41 73.911,105.394 73.921,105.378 C73.95,105.331 73.978,105.283 74.006,105.235 C74.006,105.235 74.006,105.234 74.007,105.233 C74.593,104.213 74.946,103.041 74.994,101.792 C74.995,101.771 74.996,101.751 74.997,101.73 C74.997,101.707 74.998,101.683 74.998,101.659 C74.999,101.606 75,101.553 75,101.5 C75,101.44 74.999,101.381 74.998,101.322 L74.998,101.322 Z M67.807,96.345 L69.699,94.97 C69.861,95.025 70.022,95.086 70.181,95.153 C71.001,95.5 71.738,95.997 72.371,96.629 C72.716,96.975 73.02,97.351 73.283,97.755 L72.622,99.84 L70.654,100.487 L67.807,98.418 L67.807,96.345 L67.807,96.345 Z M62.63,96.629 C63.263,95.997 63.999,95.5 64.82,95.153 C64.978,95.086 65.139,95.025 65.302,94.97 L67.194,96.345 L67.194,98.418 L64.332,100.498 L62.382,99.85 L61.718,97.755 C61.98,97.351 62.285,96.975 62.63,96.629 L62.63,96.629 Z M63.834,105.897 L61.966,105.601 C61.64,105.163 61.368,104.688 61.154,104.181 C60.803,103.351 60.621,102.47 60.613,101.561 L62.192,100.432 L64.143,101.08 L65.248,104.482 L63.834,105.897 L63.834,105.897 Z M70.481,107.711 C70.382,107.759 70.283,107.804 70.181,107.847 C69.332,108.206 68.431,108.388 67.5,108.388 C66.57,108.388 65.668,108.206 64.82,107.847 C64.705,107.798 64.593,107.747 64.483,107.693 L64.267,106.33 L65.793,104.804 L69.423,104.804 L70.734,106.115 L70.481,107.711 L70.481,107.711 Z M73.847,104.181 C73.671,104.596 73.457,104.99 73.207,105.36 L71.167,105.682 L69.805,104.32 L70.864,101.062 L72.8,100.426 L74.387,101.561 C74.38,102.47 74.198,103.351 73.847,104.181 L73.847,104.181 Z" fill="#333333"></path>
                    </g>
                </g>
            </g>
        </g>
    </g>
</svg>