<?xml version="1.0" encoding="UTF-8" standalone="no"?>
<svg width="500px" height="168px" viewBox="0 0 500 168" version="1.1" xmlns="http://www.w3.org/2000/svg" xmlns:xlink="http://www.w3.org/1999/xlink" xmlns:sketch="http://www.bohemiancoding.com/sketch/ns">
    <!-- Generator: Sketch 3.3.2 (12043) - http://www.bohemiancoding.com/sketch -->
    <title>Logo</title>
    <desc>Created with Sketch.</desc>
    <defs></defs>
    <g id="Landing" stroke="none" stroke-width="1" fill="none" fill-rule="evenodd" sketch:type="MSPage">
        <g id="Desktop-HD" sketch:type="MSArtboardGroup" transform="translate(-175.000000, -100.000000)" fill="#333333">
            <g id="Home-Section" sketch:type="MSLayerGroup">
                <g id="Logo" transform="translate(175.000000, 100.000000)" sketch:type="MSShapeGroup">
                    <path d="M23.11,70.312 L34.939,104.626 C34.939,104.626 35.348,105.897 35.532,107.385 C35.865,110.089 35.954,111.736 35.954,111.736 C35.954,111.736 36.213,108.667 36.445,107.385 C36.708,105.934 37.157,104.639 37.157,104.639 L49.575,68.609 C50.664,65.451 53.148,63.033 56.183,61.685 C58.16,60.762 60.852,60.192 63.821,60.192 C66.572,60.192 69.084,60.683 71.012,61.488 C71.02,61.492 71.031,61.495 71.039,61.499 C71.162,61.55 71.282,61.604 71.402,61.658 C74.396,63.014 76.839,65.415 77.917,68.542 L88.833,100.245 L88.824,100.245 L90.195,104.228 C90.195,104.228 90.648,105.493 90.789,106.984 C91.034,109.613 91.005,111.736 91.005,111.736 C91.005,111.736 91.469,108.271 91.703,106.984 C91.966,105.539 92.414,104.238 92.414,104.238 L93.793,100.245 L93.787,100.245 L104.879,68.293 C106.769,62.805 112.867,59.547 118.757,60.273 C124.648,60.992 128.201,65.131 126.31,70.62 L119.717,89.571 C119.717,89.571 119.571,89.932 119.299,90.098 C119.299,90.098 126.553,90.077 127.586,90.034 C131.051,89.889 137.126,88.964 139.788,87.352 C142.958,85.432 149.04,79.553 151.73,69.69 C154.462,59.68 153.145,53.232 147.814,50.529 C145.189,49.194 141.746,49.201 139.692,49.207 L66.678,49.207 C60.874,49.207 58.122,44.501 59.354,38.697 C60.589,32.892 65.651,28.185 71.456,28.185 L139.643,28.185 C143.075,28.177 150.195,28.163 157.333,31.784 C161.58,33.942 165.137,36.932 167.872,40.595 C153.336,14.428 124.61,0 89.097,0 C62.325,0 39.41,8.201 23.527,23.448 C14.092,33.323 15.858,45.539 17.515,52.312 C18.468,56.197 21.888,66.446 23.11,70.312" id="Fill-1"></path>
                    <path d="M173.286,52.762 C174.698,59.384 174.277,66.907 172.011,75.221 C167.87,90.408 158.271,100.735 150.672,105.334 C142.808,110.093 131.687,110.904 128.46,111.038 C127.442,111.079 112.613,111.049 112.337,111.025 L108.907,120.962 L108.866,120.96 L105.304,131.296 C104.23,134.421 101.785,136.823 98.795,138.179 C98.672,138.233 98.553,138.285 98.429,138.338 C98.418,138.342 98.41,138.348 98.402,138.35 C96.473,139.159 93.961,139.646 91.211,139.646 C88.241,139.646 85.55,139.078 83.572,138.152 C80.536,136.807 78.053,134.389 76.968,131.23 L66.085,99.633 L64.771,95.803 C64.771,95.803 64.315,94.631 64.021,92.892 C63.805,91.604 63.605,88.031 63.605,88.031 C63.605,88.031 63.433,90.902 63.107,92.892 C62.935,93.939 62.74,94.89 62.562,95.455 L53.762,121.014 L53.749,121.008 L50.208,131.296 C49.131,134.421 46.687,136.823 43.696,138.179 C43.575,138.233 43.456,138.285 43.328,138.338 C43.32,138.342 43.312,138.348 43.3,138.35 C41.374,139.159 38.863,139.646 36.112,139.646 C33.144,139.646 30.451,139.078 28.473,138.152 C25.439,136.807 22.955,134.389 21.867,131.23 L16.365,115.254 C16.27,115.025 16.178,114.796 16.096,114.558 C16.096,114.558 10.748,98.671 5.741,83.546 C3.427,76.56 2.145,71.249 1.324,66.956 C0.452,72.228 0,77.781 0,83.602 C0,136.572 37.342,167.206 89.097,167.206 C140.851,167.206 178.194,136.572 178.194,83.602 C178.194,72.273 176.482,61.967 173.286,52.762" id="Fill-2"></path>
                    <path d="M280.441,133.872 L277.656,127.247 L253.945,127.247 L251.16,134.015 C250.072,136.656 249.143,138.437 248.375,139.36 C247.605,140.285 246.345,140.748 244.595,140.748 C243.11,140.748 241.795,140.254 240.656,139.27 C239.516,138.287 238.945,137.171 238.945,135.922 C238.945,135.204 239.079,134.459 239.344,133.691 C239.608,132.923 240.046,131.856 240.656,130.487 L255.576,96.219 C256,95.236 256.511,94.054 257.107,92.674 C257.704,91.295 258.341,90.148 259.017,89.236 C259.694,88.325 260.582,87.587 261.682,87.022 C262.783,86.458 264.143,86.177 265.761,86.177 C267.405,86.177 268.777,86.458 269.878,87.022 C270.979,87.587 271.868,88.313 272.545,89.2 C273.219,90.088 273.79,91.043 274.255,92.062 C274.719,93.083 275.309,94.444 276.025,96.148 L291.263,130.2 C292.456,132.791 293.053,134.675 293.053,135.851 C293.053,137.075 292.49,138.198 291.362,139.217 C290.235,140.236 288.875,140.748 287.285,140.748 C286.356,140.748 285.56,140.596 284.898,140.296 C284.234,139.997 283.676,139.588 283.226,139.074 C282.775,138.557 282.292,137.765 281.775,136.696 C281.258,135.63 280.812,134.687 280.441,133.872 L280.441,133.872 Z M257.048,119.221 L274.474,119.221 L265.681,97.444 L257.048,119.221 L257.048,119.221 Z" id="Fill-3"></path>
                    <path d="M306.684,87.077 L322.079,87.077 C326.084,87.077 329.52,87.413 332.384,88.084 C335.25,88.756 337.848,90.016 340.183,91.864 C346.255,96.568 349.293,103.719 349.293,113.318 C349.293,116.486 348.988,119.379 348.379,121.993 C347.768,124.608 346.826,126.967 345.554,129.066 C344.279,131.167 342.649,133.042 340.659,134.698 C339.095,135.972 337.383,136.991 335.528,137.76 C333.671,138.528 331.674,139.067 329.541,139.379 C327.405,139.69 324.997,139.846 322.319,139.846 L306.922,139.846 C304.773,139.846 303.155,139.553 302.069,138.964 C300.981,138.377 300.272,137.549 299.941,136.48 C299.608,135.414 299.441,134.027 299.441,132.324 L299.441,93.627 C299.441,91.325 300.012,89.657 301.153,88.624 C302.294,87.593 304.137,87.077 306.684,87.077 L306.684,87.077 Z M311.258,95.536 L311.258,131.351 L320.211,131.351 C322.173,131.351 323.712,131.304 324.825,131.208 C325.939,131.112 327.093,130.872 328.286,130.487 C329.479,130.104 330.515,129.564 331.39,128.869 C335.341,125.845 337.318,120.638 337.318,113.245 C337.318,108.038 336.448,104.138 334.712,101.546 C332.974,98.955 330.833,97.306 328.286,96.598 C325.741,95.89 322.664,95.536 319.056,95.536 L311.258,95.536 L311.258,95.536 Z" id="Fill-4"></path>
                    <path d="M362.694,87.077 L378.09,87.077 C382.094,87.077 385.53,87.413 388.394,88.084 C391.26,88.756 393.858,90.016 396.193,91.864 C402.265,96.568 405.303,103.719 405.303,113.318 C405.303,116.486 404.998,119.379 404.387,121.993 C403.778,124.608 402.836,126.967 401.563,129.066 C400.289,131.167 398.66,133.042 396.669,134.698 C395.105,135.972 393.393,136.991 391.537,137.76 C389.681,138.528 387.685,139.067 385.551,139.379 C383.414,139.69 381.007,139.846 378.329,139.846 L362.932,139.846 C360.784,139.846 359.165,139.553 358.077,138.964 C356.991,138.377 356.281,137.549 355.951,136.48 C355.618,135.414 355.451,134.027 355.451,132.324 L355.451,93.627 C355.451,91.325 356.023,89.657 357.163,88.624 C358.302,87.593 360.147,87.077 362.694,87.077 L362.694,87.077 Z M367.268,95.536 L367.268,131.351 L376.22,131.351 C378.183,131.351 379.722,131.304 380.835,131.208 C381.949,131.112 383.103,130.872 384.296,130.487 C385.49,130.104 386.523,129.564 387.4,128.869 C391.352,125.845 393.328,120.638 393.328,113.245 C393.328,108.038 392.459,104.138 390.722,101.546 C388.984,98.955 386.843,97.306 384.296,96.598 C381.751,95.89 378.674,95.536 375.066,95.536 L367.268,95.536 L367.268,95.536 Z" id="Fill-5"></path>
                    <path d="M425.872,92.657 L425.872,131.065 L447.246,131.065 C449.155,131.065 450.62,131.484 451.642,132.324 C452.663,133.162 453.173,134.219 453.173,135.49 C453.173,136.787 452.669,137.837 451.661,138.642 C450.654,139.445 449.181,139.846 447.246,139.846 L421.296,139.846 C418.723,139.846 416.874,139.331 415.746,138.3 C414.618,137.266 414.055,135.6 414.055,133.295 L414.055,92.657 C414.055,90.496 414.593,88.877 415.666,87.797 C416.74,86.717 418.153,86.177 419.903,86.177 C421.68,86.177 423.12,86.71 424.22,87.779 C425.321,88.847 425.872,90.473 425.872,92.657" id="Fill-6"></path>
                    <path d="M493.475,95.319 L469.849,95.319 L469.849,108.279 L491.367,108.279 C493.169,108.279 494.516,108.644 495.404,109.376 C496.293,110.109 496.737,111.075 496.737,112.272 C496.737,113.474 496.301,114.451 495.424,115.208 C494.549,115.964 493.196,116.341 491.367,116.341 L469.849,116.341 L469.849,131.351 L494.39,131.351 C496.246,131.351 497.646,131.742 498.587,132.522 C499.529,133.302 500,134.339 500,135.636 C500,136.883 499.529,137.897 498.587,138.677 C497.646,139.457 496.246,139.846 494.39,139.846 L465.274,139.846 C462.702,139.846 460.852,139.331 459.724,138.3 C458.598,137.266 458.035,135.6 458.035,133.295 L458.035,93.627 C458.035,92.093 458.286,90.838 458.789,89.866 C459.293,88.894 460.082,88.186 461.157,87.742 C462.232,87.298 463.603,87.077 465.274,87.077 L493.475,87.077 C495.357,87.077 496.758,87.455 497.672,88.21 C498.587,88.966 499.045,89.956 499.045,91.179 C499.045,92.428 498.587,93.43 497.672,94.186 C496.758,94.941 495.357,95.319 493.475,95.319" id="Fill-7"></path>
                    <path d="M240.941,96.112 C240.04,94.096 238.72,92.392 236.983,91 C235.246,89.609 233.184,88.613 230.796,88.012 C228.383,87.388 224.934,87.077 220.453,87.077 L196.901,87.077 C195.072,87.077 193.713,87.443 192.825,88.177 C191.937,88.91 191.493,89.873 191.493,91.062 C191.493,92.273 191.937,93.247 192.825,93.98 C193.713,94.714 195.072,95.081 196.901,95.081 L197.815,95.081 L197.815,95.095 L211.021,95.095 L211.021,95.104 L217.587,95.104 C222.865,95.104 226.353,95.884 228.05,97.444 C229.563,98.908 230.319,100.804 230.319,103.131 C230.319,105.075 229.829,106.647 228.847,107.846 C227.864,109.047 226.441,109.91 224.57,110.438 C222.701,110.967 220.373,111.23 217.587,111.23 L209.631,111.23 L209.631,106.426 C209.631,104.289 209.073,102.671 207.96,101.567 C206.846,100.464 205.44,99.911 203.743,99.911 C201.965,99.911 200.533,100.457 199.445,101.548 C198.358,102.64 197.815,104.242 197.815,106.354 L197.815,134.304 C197.815,136.416 198.358,138.017 199.445,139.109 C200.533,140.2 201.965,140.748 203.743,140.748 C205.44,140.748 206.846,140.194 207.96,139.091 C209.073,137.987 209.631,136.368 209.631,134.231 L209.631,119.294 L220.453,119.294 C227.694,119.294 233.144,117.907 236.804,115.135 C240.464,112.364 242.295,108.291 242.295,102.915 C242.295,100.395 241.842,98.127 240.941,96.112" id="Fill-8"></path>
                    <path d="M245.191,73.347 L235.594,41.707 L225.875,73.347 C225.119,75.747 224.519,77.468 224.073,78.512 C223.629,79.556 222.851,80.493 221.743,81.32 C220.638,82.147 219.166,82.562 217.332,82.562 C215.847,82.562 214.624,82.315 213.666,81.823 C212.708,81.333 211.932,80.636 211.339,79.735 C210.744,78.837 210.258,77.768 209.881,76.532 C209.502,75.296 209.165,74.151 208.869,73.094 L198.987,37.567 C198.394,35.504 198.098,33.932 198.098,32.852 C198.098,31.484 198.638,30.331 199.717,29.395 C200.796,28.459 202.133,27.992 203.726,27.992 C205.912,27.992 207.384,28.616 208.14,29.863 C208.894,31.112 209.555,32.923 210.123,35.299 L217.898,66.112 L226.604,37.279 C227.252,35.071 227.832,33.392 228.344,32.239 C228.858,31.088 229.695,30.092 230.856,29.252 C232.016,28.412 233.596,27.992 235.594,27.992 C237.617,27.992 239.189,28.43 240.31,29.306 C241.43,30.182 242.207,31.136 242.637,32.167 C243.07,33.2 243.651,34.903 244.381,37.279 L253.167,66.112 L260.941,35.299 C261.318,33.691 261.675,32.432 262.014,31.52 C262.352,30.608 262.931,29.791 263.756,29.072 C264.578,28.352 265.773,27.992 267.34,27.992 C268.905,27.992 270.234,28.454 271.326,29.378 C272.42,30.302 272.968,31.46 272.968,32.852 C272.968,33.836 272.67,35.406 272.077,37.567 L262.195,73.094 C261.521,75.494 260.961,77.252 260.516,78.368 C260.071,79.484 259.315,80.462 258.249,81.302 C257.182,82.142 255.678,82.562 253.733,82.562 C251.898,82.562 250.426,82.154 249.32,81.338 C248.213,80.522 247.443,79.605 247.012,78.584 C246.579,77.565 245.973,75.819 245.191,73.347" id="Fill-9"></path>
                    <path d="M294.621,34.472 L294.621,49.589 L320.575,49.589 L320.575,34.472 C320.575,32.311 321.121,30.692 322.215,29.612 C323.308,28.532 324.746,27.992 326.528,27.992 C328.336,27.992 329.801,28.526 330.921,29.594 C332.039,30.662 332.6,32.288 332.6,34.472 L332.6,76.046 C332.6,78.23 332.034,79.862 330.9,80.942 C329.767,82.022 328.31,82.562 326.528,82.562 C324.718,82.562 323.274,82.015 322.195,80.924 C321.115,79.833 320.575,78.206 320.575,76.046 L320.575,58.301 L294.621,58.301 L294.621,76.046 C294.621,78.23 294.054,79.862 292.919,80.942 C291.784,82.022 290.328,82.562 288.547,82.562 C286.737,82.562 285.292,82.015 284.213,80.924 C283.134,79.833 282.593,78.206 282.593,76.046 L282.593,34.472 C282.593,32.311 283.125,30.692 284.194,29.612 C285.259,28.532 286.71,27.992 288.547,27.992 C290.353,27.992 291.819,28.526 292.938,29.594 C294.06,30.662 294.621,32.288 294.621,34.472" id="Fill-10"></path>
                    <path d="M373.095,27.992 C379.251,27.992 384.536,29.103 388.948,31.322 C393.361,33.542 396.703,36.698 398.971,40.788 C401.237,44.88 402.371,49.685 402.371,55.206 C402.371,59.285 401.75,62.992 400.51,66.328 C399.266,69.663 397.404,72.555 394.922,75.003 C392.438,77.451 389.387,79.321 385.77,80.618 C382.152,81.914 378.008,82.562 373.337,82.562 C368.695,82.562 364.537,81.896 360.868,80.564 C357.194,79.232 354.13,77.354 351.673,74.931 C349.219,72.506 347.362,69.591 346.108,66.183 C344.852,62.776 344.225,59.092 344.225,55.132 C344.225,51.078 344.878,47.358 346.188,43.974 C347.497,40.59 349.392,37.711 351.878,35.335 C354.361,32.959 357.384,31.141 360.947,29.881 C364.512,28.622 368.562,27.992 373.095,27.992 L373.095,27.992 Z M390.183,55.132 C390.183,51.27 389.481,47.922 388.079,45.09 C386.674,42.259 384.669,40.117 382.065,38.665 C379.459,37.212 376.47,36.487 373.095,36.487 C370.693,36.487 368.473,36.89 366.435,37.693 C364.397,38.497 362.641,39.667 361.171,41.202 C359.7,42.738 358.54,44.7 357.687,47.088 C356.837,49.476 356.412,52.157 356.412,55.132 C356.412,58.133 356.837,60.845 357.687,63.269 C358.54,65.693 359.741,67.702 361.292,69.297 C362.844,70.894 364.624,72.086 366.635,72.879 C368.647,73.671 370.855,74.067 373.259,74.067 C376.334,74.067 379.161,73.383 381.741,72.015 C384.317,70.646 386.37,68.536 387.895,65.68 C389.419,62.824 390.183,59.308 390.183,55.132 L390.183,55.132 Z" id="Fill-11"></path>
                    <path d="M425.933,34.472 L425.933,72.879 L449.209,72.879 C451.153,72.879 452.644,73.299 453.684,74.138 C454.721,74.978 455.242,76.036 455.242,77.306 C455.242,78.602 454.73,79.652 453.704,80.456 C452.678,81.261 451.178,81.662 449.209,81.662 L421.277,81.662 C418.657,81.662 416.775,81.146 415.627,80.114 C414.48,79.082 413.908,77.415 413.908,75.11 L413.908,34.472 C413.908,32.311 414.453,30.692 415.546,29.612 C416.639,28.532 418.076,27.992 419.858,27.992 C421.669,27.992 423.132,28.526 424.251,29.594 C425.372,30.662 425.933,32.288 425.933,34.472" id="Fill-12"></path>
                    <path d="M497.064,35.155 C497.577,34.219 497.833,33.283 497.833,32.348 C497.833,31.195 497.327,30.182 496.314,29.306 C495.303,28.43 494.038,27.992 492.528,27.992 C491.556,27.992 490.733,28.148 490.059,28.459 C489.383,28.772 488.769,29.222 488.216,29.809 C487.662,30.399 487.157,31.027 486.698,31.7 C486.24,32.371 485.67,33.2 484.996,34.183 L473.782,50.201 L462.686,34.183 C460.986,31.712 459.71,30.061 458.86,29.234 C458.01,28.406 456.76,27.992 455.114,27.992 C453.547,27.992 452.232,28.436 451.166,29.324 C450.099,30.212 449.567,31.267 449.567,32.492 C449.567,33.236 449.83,34.112 450.357,35.12 C450.883,36.126 451.78,37.531 453.05,39.331 L467.545,59.308 L467.545,76.046 C467.545,78.255 468.098,79.893 469.205,80.96 C470.311,82.027 471.755,82.562 473.537,82.562 C475.292,82.562 476.737,82.022 477.871,80.942 C479.003,79.862 479.571,78.23 479.571,76.046 L479.571,59.308 L494.433,39.043 C495.673,37.387 496.55,36.091 497.064,35.155" id="Fill-13"></path>
                </g>
            </g>
        </g>
    </g>
</svg>
